<svg width="161" height="187" viewBox="0 0 161 187" fill="none" xmlns="http://www.w3.org/2000/svg">
<rect y="0.5" width="160" height="186" rx="16" fill="#293AD2"/>
<g opacity="0.2">
<mask id="mask0_1072:8337" style="mask-type:alpha" maskUnits="userSpaceOnUse" x="1" y="0" width="160" height="187">
<path d="M1 16.5C1 7.66343 8.16344 0.5 17 0.5H145C153.837 0.5 161 7.66344 161 16.5V170.5C161 179.336 153.837 186.5 145 186.5H17C8.16345 186.5 1 179.336 1 170.5V16.5Z" fill="#FFC737"/>
</mask>
<g mask="url(#mask0_1072:8337)">
<ellipse cx="23.5839" cy="178.93" rx="38.3708" ry="38.3708" transform="rotate(-112.628 23.5839 178.93)" fill="white"/>
<rect x="135.033" y="155.891" width="90.0103" height="34.781" rx="17.3905" transform="rotate(-71.0096 135.033 155.891)" fill="white"/>
<rect x="74.7323" y="181.026" width="90.0103" height="34.781" rx="17.3905" transform="rotate(-71.0096 74.7323 181.026)" fill="white"/>
</g>
</g>
</svg>
