<svg width="18" height="23" viewBox="0 0 18 23" fill="none" xmlns="http://www.w3.org/2000/svg">
<path d="M12.2417 3.68576C11.4565 4.6514 10.2002 5.41304 8.94381 5.30423C8.78677 3.99857 9.40186 2.61131 10.1216 1.75448C10.9069 0.761633 12.281 0.0544024 13.3934 0C13.5243 1.36006 13.0139 2.69292 12.2417 3.68576ZM13.3803 5.56264C11.5612 5.45384 10.0039 6.63709 9.14012 6.63709C8.26329 6.63709 6.94151 5.61705 5.50194 5.64425C3.6305 5.67145 1.88994 6.7731 0.934586 8.52757C-1.02846 12.0365 0.424194 17.232 2.32181 20.0881C3.25098 21.5025 4.36337 23.053 5.82911 22.9986C7.21633 22.9442 7.76599 22.0602 9.44112 22.0602C11.1293 22.0602 11.6136 22.9986 13.0793 22.9714C14.5974 22.9442 15.5527 21.5569 16.4819 20.1425C17.542 18.5376 17.9738 16.9735 18 16.8919C17.9738 16.8647 15.0685 15.7087 15.0423 12.2269C15.0162 9.31641 17.3326 7.92915 17.4373 7.84754C16.1286 5.83466 14.087 5.61705 13.3803 5.56264Z" fill="black"/>
</svg>
