<svg width="80" height="80" viewBox="0 0 80 80" fill="none" xmlns="http://www.w3.org/2000/svg">
<circle cx="40" cy="40" r="30" fill="#FFC737"/>
<circle cx="40" cy="40" r="35" stroke="#FFC737" stroke-opacity="0.3" stroke-width="10"/>
<path d="M32.6496 46.9991V44.2989H26.8278V44.2091L28.6233 42.5585C31.6758 39.8997 32.47 38.5461 32.4769 36.9232C32.47 34.3886 30.3913 32.6621 27.2076 32.6621C24.093 32.6621 22.0004 34.4577 22.0142 37.3168H25.1703C25.1703 36.0323 25.9783 35.2657 27.1938 35.2657C28.3816 35.2657 29.2449 35.9977 29.2518 37.1718C29.2449 38.2491 28.5612 38.9674 27.3664 40.0585L22.2007 44.5958L22.2076 46.9991H32.6496Z" fill="white"/>
<path d="M44.1203 41.9922V32.8555H39.9214L34.065 42.0129V44.6234H40.9366V46.9991H44.1203V44.6234H45.8399V41.9922H44.1203ZM40.8744 36.4052H40.9987V41.9922H37.3868V41.8817L40.8744 36.4052Z" fill="white"/>
<path d="M50.9327 40.9356C50.9327 39.6925 51.6854 38.9605 52.7766 38.9605C53.8816 38.9605 54.5238 39.6718 54.5169 40.8734V46.9991H57.8111V40.2381C57.8111 37.8209 56.3539 36.2533 54.1302 36.2533C52.5349 36.2533 51.423 37.0337 50.9465 38.3251H50.8291V32.8555H47.6385V46.9991H50.9327V40.9356Z" fill="white"/>
</svg>
