<svg width="60" height="60" viewBox="0 0 60 60" fill="none" xmlns="http://www.w3.org/2000/svg">
<circle cx="30" cy="30" r="30" fill="white"/>
<path d="M33.2417 19.6858C32.4565 20.6514 31.2002 21.413 29.9438 21.3042C29.7868 19.9986 30.4019 18.6113 31.1216 17.7545C31.9069 16.7616 33.281 16.0544 34.3934 16C34.5243 17.3601 34.0139 18.6929 33.2417 19.6858ZM34.3803 21.5626C32.5612 21.4538 31.0039 22.6371 30.1401 22.6371C29.2633 22.6371 27.9415 21.617 26.5019 21.6442C24.6305 21.6714 22.8899 22.7731 21.9346 24.5276C19.9715 28.0365 21.4242 33.232 23.3218 36.0881C24.251 37.5025 25.3634 39.053 26.8291 38.9986C28.2163 38.9442 28.766 38.0602 30.4411 38.0602C32.1293 38.0602 32.6136 38.9986 34.0793 38.9714C35.5974 38.9442 36.5527 37.5569 37.4819 36.1425C38.542 34.5376 38.9738 32.9735 39 32.8919C38.9738 32.8647 36.0685 31.7087 36.0423 28.2269C36.0162 25.3164 38.3326 23.9291 38.4373 23.8475C37.1286 21.8347 35.087 21.617 34.3803 21.5626Z" fill="black"/>
</svg>
