<svg width="61" height="60" viewBox="0 0 61 60" fill="none" xmlns="http://www.w3.org/2000/svg">
<circle cx="30.7422" cy="30" r="30" fill="#F3F3F3"/>
<path d="M33.9839 19.6858C33.1987 20.6514 31.9424 21.413 30.686 21.3042C30.529 19.9986 31.144 18.6113 31.8638 17.7545C32.649 16.7616 34.0232 16.0544 35.1356 16C35.2664 17.3601 34.756 18.6929 33.9839 19.6858ZM35.1225 21.5626C33.3034 21.4538 31.746 22.6371 30.8823 22.6371C30.0055 22.6371 28.6837 21.617 27.2441 21.6442C25.3727 21.6714 23.6321 22.7731 22.6768 24.5276C20.7137 28.0365 22.1664 33.232 24.064 36.0881C24.9932 37.5025 26.1056 39.053 27.5713 38.9986C28.9585 38.9442 29.5082 38.0602 31.1833 38.0602C32.8715 38.0602 33.3557 38.9986 34.8215 38.9714C36.3396 38.9442 37.2949 37.5569 38.2241 36.1425C39.2841 34.5376 39.716 32.9735 39.7422 32.8919C39.716 32.8647 36.8107 31.7087 36.7845 28.2269C36.7584 25.3164 39.0748 23.9291 39.1794 23.8475C37.8708 21.8347 35.8292 21.617 35.1225 21.5626Z" fill="black"/>
</svg>
