<svg width="24" height="24" viewBox="0 0 24 24" fill="none" xmlns="http://www.w3.org/2000/svg">
<circle cx="12" cy="12" r="12" fill="#FFC737"/>
<path d="M13.8 5.40039H7.2C6.54 5.40039 6 5.94039 6 6.60039V14.4004C6 14.7304 6.27 15.0004 6.6 15.0004C6.93 15.0004 7.2 14.7304 7.2 14.4004V7.20039C7.2 6.87039 7.47 6.60039 7.8 6.60039H13.8C14.13 6.60039 14.4 6.33039 14.4 6.00039C14.4 5.67039 14.13 5.40039 13.8 5.40039ZM16.2 7.80039H9.6C8.94 7.80039 8.4 8.34039 8.4 9.00039V17.4004C8.4 18.0604 8.94 18.6004 9.6 18.6004H16.2C16.86 18.6004 17.4 18.0604 17.4 17.4004V9.00039C17.4 8.34039 16.86 7.80039 16.2 7.80039ZM15.6 17.4004H10.2C9.87 17.4004 9.6 17.1304 9.6 16.8004V9.60039C9.6 9.27039 9.87 9.00039 10.2 9.00039H15.6C15.93 9.00039 16.2 9.27039 16.2 9.60039V16.8004C16.2 17.1304 15.93 17.4004 15.6 17.4004Z" fill="white"/>
</svg>
