<svg width="40" height="40" viewBox="0 0 40 40" fill="none" xmlns="http://www.w3.org/2000/svg">
<circle cx="20" cy="20" r="20" fill="#FFC737"/>
<path d="M23 9H12C10.9 9 10 9.9 10 11V24C10 24.55 10.45 25 11 25C11.55 25 12 24.55 12 24V12C12 11.45 12.45 11 13 11H23C23.55 11 24 10.55 24 10C24 9.45 23.55 9 23 9ZM27 13H16C14.9 13 14 13.9 14 15V29C14 30.1 14.9 31 16 31H27C28.1 31 29 30.1 29 29V15C29 13.9 28.1 13 27 13ZM26 29H17C16.45 29 16 28.55 16 28V16C16 15.45 16.45 15 17 15H26C26.55 15 27 15.45 27 16V28C27 28.55 26.55 29 26 29Z" fill="white"/>
</svg>
