<svg width="17" height="16" viewBox="0 0 17 16" fill="none" xmlns="http://www.w3.org/2000/svg">
<path d="M8.3759 4.66732C8.74256 4.66732 9.04256 4.96732 9.04256 5.33398V8.00065C9.04256 8.36732 8.74256 8.66732 8.3759 8.66732C8.00923 8.66732 7.70923 8.36732 7.70923 8.00065V5.33398C7.70923 4.96732 8.00923 4.66732 8.3759 4.66732ZM8.36923 1.33398C4.68923 1.33398 1.70923 4.32065 1.70923 8.00065C1.70923 11.6807 4.68923 14.6673 8.36923 14.6673C12.0559 14.6673 15.0426 11.6807 15.0426 8.00065C15.0426 4.32065 12.0559 1.33398 8.36923 1.33398ZM8.3759 13.334C5.42923 13.334 3.04256 10.9473 3.04256 8.00065C3.04256 5.05398 5.42923 2.66732 8.3759 2.66732C11.3226 2.66732 13.7092 5.05398 13.7092 8.00065C13.7092 10.9473 11.3226 13.334 8.3759 13.334ZM9.04256 11.334H7.70923V10.0007H9.04256V11.334Z" fill="#777777"/>
</svg>
