<svg width="24" height="24" viewBox="0 0 24 24" fill="none" xmlns="http://www.w3.org/2000/svg">
<circle cx="12" cy="12" r="12" fill="#FFC737"/>
<path d="M12.9724 14.6133V14.4365C12.9779 13.3481 13.3702 12.8398 14.2431 12.3149C15.2762 11.6961 15.9392 10.8785 15.9392 9.59116C15.9392 7.66298 14.3978 6.53039 12.2155 6.53039C10.221 6.53039 8.58564 7.58564 8.54144 9.77901H10.7624C10.8011 8.8674 11.4751 8.38122 12.1989 8.38122C12.9613 8.38122 13.5691 8.8895 13.5691 9.66298C13.5691 10.3923 13.0497 10.8785 12.3702 11.3094C11.442 11.895 10.9171 12.4917 10.9061 14.4365V14.6133H12.9724ZM11.9834 18.1381C12.6851 18.1381 13.2928 17.5525 13.2983 16.8287C13.2928 16.1105 12.6851 15.5249 11.9834 15.5249C11.2597 15.5249 10.663 16.1105 10.674 16.8287C10.663 17.5525 11.2597 18.1381 11.9834 18.1381Z" fill="white"/>
</svg>
