<svg width="54" height="144" viewBox="0 0 54 144" fill="none" xmlns="http://www.w3.org/2000/svg">
<path d="M40.4486 29.9403C40.8935 29.1921 41.1719 28.3568 41.2649 27.4913C41.2649 27.2464 41.0853 27.0749 41.069 26.83C41.0363 26.4545 41.1751 26.1035 40.971 25.6953C40.9384 25.5892 40.6935 25.4831 40.5221 25.3116C40.5547 25.1402 40.7588 24.83 40.6935 24.6178L40.4486 24.2096C40.4486 24.1361 40.5792 24.0953 40.62 24.03C40.6608 23.9647 40.5547 23.581 40.5547 23.5157C40.4812 23.2055 40.171 22.9606 40.1384 22.6177C40.1057 22.2749 40.2445 22.0953 39.9669 21.6463C39.8904 21.701 39.8083 21.7475 39.722 21.7851L39.5506 21.4749C39.6241 21.3769 39.5833 21.3361 39.7629 21.1973C39.8282 21.2381 39.7955 21.2381 39.9016 21.1973L39.5833 20.8218C39.5833 20.43 39.069 20.0953 38.8649 19.6136C38.8112 19.4689 38.7755 19.3181 38.7588 19.1646C38.7914 19.1646 38.8649 19.0912 38.8649 19.0912C38.8649 18.9197 38.4159 18.7156 38.2363 18.5034C37.5813 17.9502 36.8635 17.4762 36.0975 17.0911C35.7546 16.8462 35.8118 16.4707 35.5751 16.3319C35.3383 16.1932 34.922 16.0871 34.6444 15.9156L34.1954 15.3932C33.8199 15.2217 33.2975 15.0503 32.8811 14.8462C32.4205 14.502 31.922 14.2117 31.3954 13.9809C30.8048 13.7934 30.1859 13.7106 29.5668 13.736L28.7505 13.5646C28.6443 13.5972 28.5056 13.7687 28.5056 13.7687C28.3668 13.8095 28.228 13.6707 28.0892 13.6707C28.1627 13.8421 28.1627 13.8421 28.0892 13.9809C27.9831 13.8748 27.9831 13.8748 27.9178 13.8748H27.9178C27.9831 14.0136 27.9831 13.8748 27.9178 14.0135C27.779 13.8421 27.8443 13.9074 27.6403 13.7687C27.3954 13.9074 27.5015 13.9074 27.2566 13.6299C27.0851 13.5972 26.8811 13.4258 26.6688 13.4258C26.5273 13.4689 26.3905 13.5263 26.2606 13.5972C26.1545 13.5972 26.0157 13.4584 25.9096 13.4584L25.6321 13.6299C25.4606 13.7033 25.3627 13.6299 25.1831 13.6299C25.2239 13.7686 24.8729 13.8748 24.6688 14.185C24.5082 14.1146 24.3658 14.0085 24.2525 13.8748C23.6884 14.0696 23.1421 14.3126 22.6198 14.6013C22.764 14.6444 22.9034 14.7018 23.0361 14.7727C22.9991 14.8112 22.9737 14.8593 22.9626 14.9115C22.9545 14.9353 22.9545 14.9612 22.9626 14.985C22.8239 14.8462 22.8647 14.9115 22.7259 14.8462C22.7912 14.7401 22.7912 14.8054 22.7912 14.7401H22.6851C22.481 14.9115 22.2769 15.0829 22.032 15.2544C22.032 15.3931 22.13 15.434 22.032 15.6054L21.8606 15.3932C21.9259 15.2217 21.8606 15.3932 21.8606 15.2217L21.6891 15.3279C21.7138 15.4543 21.6996 15.5852 21.6483 15.7034C21.3746 15.7379 21.0967 15.7157 20.832 15.638C20.6279 15.8095 20.2442 15.8421 19.9667 16.087C17.7544 18.1279 15.8442 20.2014 15.0278 22.4463C14.8921 22.9048 14.8234 23.3804 14.8237 23.8586C14.8237 24.3484 14.5789 24.8627 14.5789 25.3851C14.5789 26.2096 14.8891 27.0423 14.8891 27.9076C14.868 29.5633 15.088 31.2133 15.5421 32.8056C15.8932 33.8097 17.6973 35.7444 18.5136 36.4057C19.0034 36.8138 19.2157 37.2628 19.7299 37.5404C20.2442 37.8179 21.1095 37.9567 21.4851 38.1608C22.1086 38.9414 22.9676 39.4997 23.9341 39.7527C24.2768 39.9244 24.6348 40.0638 25.0035 40.169C25.3175 40.2027 25.6287 40.26 25.9341 40.3404C26.1055 40.4139 26.179 40.6506 26.3504 40.6506C26.8984 40.6769 27.4474 40.6302 27.9831 40.5118C29.0908 40.5762 30.2023 40.5187 31.2974 40.3404C31.8688 40.0921 32.4042 39.7681 32.8893 39.3771C33.0281 39.5486 32.8893 39.5159 33.1342 39.4424C33.0934 39.2384 33.5424 39.0669 33.8607 38.7159C34.3124 38.195 34.7921 37.6991 35.2975 37.2302C35.7873 36.7485 36.4404 36.471 36.8567 35.9894C37.5832 35.1567 38.2036 34.2261 38.8241 33.3607C39.2404 32.8056 39.7547 32.4301 40.1057 31.875C40.3098 31.4913 40.0323 31.0097 40.171 30.626L40.3098 30.5281C40.3744 30.3369 40.4209 30.1401 40.4486 29.9403Z" fill="#FF473C"/>
<path d="M40.4487 119.697C40.8936 118.949 41.1721 118.114 41.265 117.248C41.265 117.011 41.0854 116.84 41.061 116.587C41.0283 116.211 41.1671 115.86 40.963 115.452C40.9303 115.346 40.6854 115.24 40.514 115.068C40.5466 114.897 40.7507 114.587 40.6854 114.375L40.4405 113.966C40.4405 113.893 40.5711 113.852 40.612 113.787C40.6528 113.722 40.5467 113.338 40.5467 113.273C40.4732 112.962 40.163 112.717 40.1303 112.375C40.0977 112.032 40.2364 111.852 39.9589 111.403C39.8824 111.458 39.8003 111.504 39.714 111.542L39.5426 111.232C39.616 111.126 39.5752 111.093 39.7548 110.954C39.8201 110.995 39.7875 110.995 39.8936 110.954L39.5752 110.579C39.5752 110.187 39.0609 109.852 38.8568 109.37C38.8031 109.226 38.7675 109.075 38.7507 108.921C38.7834 108.921 38.8568 108.848 38.8568 108.848C38.8568 108.677 38.4079 108.472 38.2283 108.26C37.5733 107.707 36.8554 107.233 36.0895 106.848C35.7466 106.603 35.8037 106.211 35.567 106.081C35.3303 105.95 34.9139 105.844 34.6364 105.672L34.1874 105.15C33.8119 104.979 33.2894 104.807 32.8731 104.595C32.4104 104.256 31.9122 103.969 31.3874 103.738C30.7967 103.55 30.1779 103.467 29.5588 103.493L28.7424 103.321C28.6363 103.354 28.4975 103.525 28.4975 103.525C28.3587 103.558 28.22 103.428 28.0812 103.428C28.1547 103.599 28.1547 103.599 28.0812 103.738C27.9751 103.632 27.9751 103.632 27.9097 103.632C27.9751 103.77 27.9751 103.632 27.9097 103.77C27.771 103.599 27.8363 103.664 27.6322 103.525C27.3873 103.664 27.4934 103.664 27.2485 103.387C27.0771 103.354 26.873 103.183 26.6608 103.183C26.5192 103.226 26.3824 103.283 26.2526 103.354C26.1465 103.354 26.0077 103.215 25.9016 103.215L25.624 103.387C25.4526 103.46 25.3546 103.387 25.175 103.387C25.2158 103.525 24.8648 103.632 24.6607 103.942C24.5001 103.871 24.3577 103.765 24.2444 103.632C23.6803 103.826 23.134 104.069 22.6117 104.358C22.7559 104.401 22.8954 104.459 23.0281 104.53C22.9911 104.568 22.9656 104.616 22.9546 104.668C22.9482 104.69 22.9482 104.712 22.9546 104.734C22.8158 104.595 22.8566 104.668 22.7179 104.595C22.7832 104.497 22.7832 104.562 22.7832 104.497H22.677L22.6768 104.497C22.4728 104.668 22.2688 104.84 22.024 105.011C22.024 105.15 22.1219 105.183 22.024 105.362L21.8525 105.15C21.9178 104.979 21.8525 105.15 21.8525 104.979L21.6811 105.085C21.7058 105.211 21.6916 105.342 21.6403 105.46C21.3666 105.495 21.0887 105.473 20.8239 105.395C20.6199 105.566 20.2362 105.599 19.9586 105.844C17.7464 107.885 15.8361 109.958 15.0198 112.203C14.8841 112.662 14.8154 113.137 14.8157 113.615C14.8157 114.097 14.5708 114.62 14.5708 115.134C14.5708 115.966 14.881 116.799 14.881 117.656C14.8602 119.312 15.0802 120.962 15.5341 122.554C16.2889 123.928 17.2972 125.147 18.5056 126.146C18.9954 126.563 19.2076 127.011 19.7219 127.289C20.2362 127.567 21.1015 127.705 21.477 127.909C22.0968 128.703 22.9555 129.275 23.926 129.542C24.2703 129.71 24.628 129.85 24.9954 129.958C25.3095 129.992 25.6206 130.049 25.9261 130.13C26.0975 130.195 26.171 130.44 26.3424 130.44C26.8903 130.463 27.4388 130.416 27.9751 130.301C29.0828 130.366 30.1942 130.308 31.2894 130.13C31.8627 129.882 32.3985 129.555 32.8812 129.158C33.02 129.338 32.8813 129.297 33.1262 129.232C33.0853 129.028 33.5343 128.848 33.8527 128.505C34.3061 127.973 34.7885 127.466 35.2976 126.987C35.7874 126.505 36.4405 126.228 36.8568 125.738C37.5559 124.898 38.2125 124.023 38.8242 123.118C39.2405 122.562 39.7548 122.179 40.1058 121.632C40.3099 121.248 40.0324 120.767 40.1711 120.383L40.3099 120.285C40.3745 120.094 40.421 119.897 40.4487 119.697Z" fill="white"/>
<path d="M31.5912 62.8546C31.2484 62.4954 30.7259 62.2832 30.3912 61.973C30.2116 61.8179 29.9504 61.3934 29.7381 61.2138L29.1014 60.9199C28.2361 60.226 27.0606 59.2464 26.0401 58.5362C26.0401 58.1035 26.3258 57.8505 25.7136 57.4504C25.4901 57.5603 25.2413 57.6084 24.993 57.5898C24.7447 57.5711 24.5059 57.4864 24.3013 57.3443C24.0993 57.0662 23.837 56.8373 23.534 56.6749C22.6874 56.2643 21.9172 55.7121 21.2564 55.0423C21.036 54.8137 20.6931 54.9606 20.489 54.83C19.8074 54.2594 19.0623 53.7691 18.2686 53.3688C18.1053 53.3035 17.9584 53.083 17.9013 53.0422C17.7337 52.9374 17.5559 52.8499 17.3706 52.781C16.9053 52.4708 16.2277 51.8177 16.1706 51.4504C16.0645 50.8055 16.6767 50.3728 17.1012 50.0381C17.3298 49.8177 17.6482 49.0259 17.9829 48.7075C18.1053 48.585 18.1135 48.136 18.2931 47.8911C18.4727 47.6462 19.0604 47.4095 19.2319 46.8952C19.2727 46.7156 19.2319 46.4217 19.3135 46.2095C19.5586 45.6808 19.9531 45.2352 20.4482 44.9278C21.0605 44.3727 21.0605 43.8013 21.689 43.4258C22.0873 43.7456 22.5412 43.9892 23.0279 44.1442C23.0279 44.1442 22.987 44.1442 22.938 44.1442C22.8891 44.1442 23.0115 44.283 23.0115 44.283L23.085 44.1687C23.2156 44.1687 23.1666 44.2993 23.1666 44.2993C23.3358 44.5433 23.549 44.7537 23.7952 44.9197C23.7952 44.9197 23.7952 44.9687 23.7952 45.0176C24.7748 45.1646 24.9952 45.7605 25.787 46.3238C25.9688 46.4261 26.1434 46.5406 26.3095 46.6666C26.322 46.7567 26.3467 46.8446 26.383 46.9279C26.4238 46.9932 28.2524 47.9891 28.4157 48.0544C28.388 48.1102 28.374 48.1718 28.3748 48.234C28.4238 48.234 28.4728 48.234 28.4891 48.185C28.7014 48.2422 28.5871 48.4136 28.6279 48.4871C28.6687 48.5606 29.3136 48.8953 29.5259 49.0748C29.4606 49.2381 29.4361 49.1402 29.6238 49.3034C29.8769 49.2218 30.3177 49.5565 30.5218 49.8177C31.0769 50.4218 31.5831 50.9687 32.2116 51.5892C32.3096 51.5892 32.3749 51.8994 32.7014 52.0382C33.5178 52.3973 33.7382 53.1647 34.3341 53.3933C35.2304 53.6334 36.0401 54.1231 36.6688 54.8055C36.7913 54.9361 37.2076 55.0014 37.3627 55.2627L37.3056 55.3525C37.3056 55.4015 37.4933 55.5647 37.4933 55.5647C37.7464 55.6872 38.024 55.8259 38.3097 55.9239C38.2826 56.0366 38.2826 56.1541 38.3097 56.2668C38.4076 56.3729 38.5056 56.2668 38.5791 56.3566C38.8375 56.5668 39.0631 56.8144 39.2485 57.0913C39.5342 57.4831 39.9913 57.2872 40.3342 57.6464C40.4321 57.4994 40.3342 57.5484 40.4321 57.4994C40.4696 57.6251 40.5368 57.7399 40.6281 57.8341C40.625 57.9992 40.58 58.1608 40.4971 58.3037C40.4143 58.4465 40.2964 58.5659 40.1546 58.6505C39.975 58.5362 40.073 58.5117 39.9015 58.6505C40.0077 59.0505 39.5913 59.3117 39.2974 59.6954H39.3546H39.575L39.5178 59.777C39.2403 59.8831 39.1097 60.2097 38.8321 60.1934L38.8893 60.1035C39.1178 60.0137 38.9709 59.9158 39.0362 59.7525C39.2037 59.6316 39.3845 59.5303 39.575 59.4505L39.3383 59.2954C39.2622 59.2886 39.1857 59.2886 39.1097 59.2954H39.1668C39.1749 59.3799 39.2092 59.4598 39.2648 59.524H39.2076C39.0386 59.5401 38.8788 59.6086 38.7505 59.7199L38.5791 59.6056L38.4076 59.8668C38.4566 59.8668 38.4811 59.8668 38.5627 59.8668L38.5219 59.9239C38.4461 59.8971 38.3649 59.889 38.2853 59.9004C38.2057 59.9118 38.13 59.9423 38.0648 59.9893C38.0648 60.1199 37.975 60.1852 38.0648 60.3648C38.1872 60.2423 38.2199 60.2587 38.3668 60.275C38.1709 60.3974 38.1709 60.5199 38.1627 60.724L38.1056 60.6832C38.1078 60.6505 38.1078 60.6178 38.1056 60.5852L38.0484 60.675C38.0484 60.8954 38.0484 60.7485 37.8444 60.9934H37.9015C38.0399 60.9511 38.1877 60.9511 38.326 60.9934C38.2444 61.2301 38.326 61.2219 38.4403 61.4423C37.428 62.4709 35.9913 64.0138 34.8974 65.0669L33.7137 64.2914C33.4688 63.9648 32.0076 63.2873 31.5912 62.8546ZM21.934 43.7115L21.8197 43.638C21.8605 43.7033 21.8197 43.638 21.9176 43.7442L21.934 43.7115ZM24.6605 47.7442C24.4809 47.4503 24.3503 47.4585 24.5462 47.1646C24.6115 47.1238 24.6034 47.2054 24.6768 47.0911L24.6197 47.0503C24.6197 46.9034 24.6197 46.9524 24.4728 46.8299C24.3477 46.8912 24.2118 46.9273 24.0728 46.936C24.2034 46.7401 24.1952 46.8136 24.0728 46.634C23.9748 46.7319 24.0728 46.6911 23.9421 46.7075C24.0646 46.585 24.1707 46.6095 24.1381 46.5442C24.1054 46.4789 24.0238 46.3891 23.885 46.2993L23.787 46.4381C23.5421 46.4381 23.4768 46.6095 23.1748 46.4952C23.134 46.2993 23.1176 46.3319 22.8891 46.1768C22.6605 46.2748 22.587 46.4381 22.4237 46.4952C22.2605 46.5524 22.4237 46.4952 22.2768 46.4952C22.2135 46.3116 22.1104 46.1444 21.9748 46.0054C21.9013 46.0054 21.9748 46.0054 21.8197 46.0054L21.7789 46.0626C21.789 46.179 21.766 46.296 21.7126 46.4C21.6591 46.504 21.5774 46.5908 21.4768 46.6503L21.5993 46.7238C21.6983 46.6696 21.8074 46.6366 21.9198 46.6268C22.0322 46.6169 22.1454 46.6305 22.2523 46.6666C22.1544 46.8871 22.2523 46.8952 22.2931 47.1075C22.446 47.165 22.585 47.254 22.7013 47.3687L22.7993 47.2299C22.636 47.1646 22.7013 47.2299 22.6197 47.1156L22.7421 47.1891C22.7899 47.1595 22.8451 47.1437 22.9013 47.1437C22.9576 47.1437 23.0127 47.1595 23.0605 47.1891C22.9952 47.3524 22.987 47.3034 23.0605 47.3687C23.2319 47.483 23.4523 47.4667 23.583 47.7116L23.5258 47.8014C23.7054 48.0871 23.8687 47.8013 24.1462 48.1687C24.2197 48.0544 24.2197 48.0544 24.3177 48.0381C24.4156 48.0218 24.2115 48.2585 24.3177 48.185V48.1279C24.5462 48.0218 24.5136 47.9728 24.6605 47.7442ZM25.9258 48.0789L25.8116 48.0054C25.8524 48.0708 25.8115 48.0054 25.8932 48.1361L25.9258 48.0789ZM22.4972 45.9401C22.4957 46.0476 22.5094 46.1548 22.538 46.2585L22.5952 46.2993C22.6605 46.136 22.5952 46.2258 22.7258 46.0952C22.6611 46.0284 22.5832 45.9756 22.4972 45.9401ZM23.9993 46.9279C24.1136 46.8789 23.9993 47.083 23.9993 47.083C23.9993 47.083 23.9993 47.0177 23.9258 46.9524C23.8523 46.8871 23.9748 46.9605 23.9993 46.9279ZM26.6524 48.6748L26.5381 48.6014C26.4156 48.6014 26.4564 48.6014 26.3258 48.5442C26.3258 48.6422 26.432 48.6993 26.5789 48.7891L26.6524 48.6748ZM25.7218 48.1442L25.6075 48.0707C25.6225 48.119 25.6475 48.1635 25.6809 48.2014L25.7218 48.1442ZM23.0768 46.5687C23.0768 46.634 23.0768 46.5687 23.0768 46.6993C23.0523 46.6013 23.0442 46.6748 23.0768 46.5687ZM24.1054 47.5809L24.2034 47.434C24.1707 47.5401 24.1952 47.5156 24.1054 47.5809ZM23.2483 46.9605L23.3626 47.0421C23.3626 47.0421 23.3136 47.0421 23.2809 47.0421V47.1075C23.2483 46.9932 23.1993 47.0667 23.2483 46.9605ZM21.3707 46.2258C21.5095 46.0217 21.5584 46.136 21.485 45.9319C21.3788 46.0707 21.338 46.1279 21.3543 46.2258H21.3707ZM37.8525 57.1974C38.0076 57.1974 38.0076 57.1974 38.1627 57.1076L38.1056 56.9443C38.0378 56.9158 37.9663 56.8966 37.8933 56.8872C37.799 56.9982 37.7394 57.1344 37.7219 57.279C37.7709 57.2382 37.7219 57.2464 37.8362 57.1974H37.8525ZM21.8115 46.4381V46.3809L21.9258 46.4544V46.5115L21.8115 46.4381ZM22.9789 47.4911L22.8646 47.4177C22.8646 47.5075 22.8646 47.4667 22.9462 47.5483L22.9789 47.4911ZM37.5668 57.2872L37.5097 57.377L37.6239 57.4504C37.6484 57.2382 37.6974 57.3525 37.5505 57.2545L37.5668 57.2872ZM39.6403 58.8627C39.6468 58.8112 39.6468 58.7591 39.6403 58.7076L39.5668 58.8219L39.6403 58.8627ZM35.1015 56.9525C35.3219 57.1811 35.0606 57.0096 35.2566 57.2137C35.1066 57.267 34.9695 57.3512 34.8541 57.4609C34.7388 57.5706 34.6479 57.7033 34.5872 57.8505C34.3505 57.777 34.5219 57.7688 34.3423 57.8505C34.531 58.008 34.6817 58.2061 34.7831 58.4301C34.9709 58.3403 34.9872 58.3158 35.2076 58.4301C35.256 58.3607 35.2817 58.2779 35.2811 58.1933C35.4748 58.3629 35.7256 58.4529 35.983 58.4453C36.2403 58.4377 36.4853 58.3332 36.6688 58.1525L36.5545 58.079C36.3423 58.1525 36.228 58.079 35.9668 57.8994L36.0648 57.7607L35.9505 57.679C35.9122 57.6159 35.8655 57.5582 35.8117 57.5076C35.7579 57.6012 35.6786 57.6776 35.5831 57.728H35.526L35.6647 57.5239C35.769 57.4879 35.8615 57.4239 35.932 57.339C36.0025 57.2541 36.0484 57.1514 36.0648 57.0423C35.9793 56.8935 35.875 56.7563 35.7545 56.6341C35.5248 56.7129 35.301 56.8084 35.0851 56.9198L35.1015 56.9525ZM37.3138 59.9403C37.456 59.9106 37.5877 59.8435 37.6953 59.7459C37.8029 59.6483 37.8826 59.5238 37.926 59.3852L37.6403 59.1974C37.9423 58.7321 37.8933 58.8709 38.2117 58.577C38.1956 58.4894 38.1682 58.4044 38.1301 58.3239C37.5831 58.3239 37.4933 58.7811 37.175 59.0178C37.1013 58.9458 37.0478 58.8558 37.0199 58.7566C37.1995 58.7566 37.5342 58.4709 37.5342 58.4709C37.5342 58.4709 37.5342 58.3974 37.5342 58.3811C37.2077 58.54 36.8575 58.6448 36.4974 58.6913C36.4604 58.7559 36.4407 58.829 36.4403 58.9035L36.6117 59.0178C36.7096 59.0178 36.6117 59.0178 36.7668 59.0178C36.6688 59.1648 36.6117 59.2464 36.6199 59.3688C36.7668 59.2627 36.7015 59.3035 36.8484 59.2791L36.7341 59.4505C36.6362 59.4505 36.579 59.5566 36.4811 59.6954L36.6035 59.777C36.69 59.7116 36.7974 59.6797 36.9056 59.6872C36.8473 59.7761 36.8084 59.8762 36.7913 59.9811C36.963 59.9857 37.1341 59.9609 37.2974 59.9076L37.3138 59.9403ZM20.2686 47.1891C20.0933 47.3693 19.902 47.5332 19.6972 47.6789L19.8686 47.7932C20.1135 47.5401 20.2441 47.6626 20.4972 47.336C20.4401 47.336 20.3992 47.2299 20.3421 47.1973C20.285 47.1646 20.2768 47.2054 20.2523 47.1564L20.2686 47.1891ZM23.134 49.3606V49.2381C23.134 49.0503 23.134 49.0993 22.8972 48.9116C22.6931 49.2789 22.6768 49.181 22.3748 49.4422V49.5401C22.5054 49.5891 22.4319 49.581 22.5299 49.5401C22.721 49.4567 22.9173 49.3859 23.1176 49.3279L23.134 49.3606ZM38.1382 59.1566L38.0158 59.075C38.0811 59.2219 38.0076 59.2137 38.1219 59.1648L38.1382 59.1566ZM35.0525 57.8178C34.9391 57.8385 34.823 57.8385 34.7096 57.8178L34.7831 57.7035C34.9126 57.7027 35.0416 57.7192 35.1668 57.7525L35.1096 57.8341L35.0525 57.8178ZM21.7952 50.2422C21.6138 50.0301 21.4627 49.7938 21.3462 49.5401C21.2972 49.2952 21.4442 49.1483 21.3462 48.9442C21.2482 48.7401 21.2401 48.7891 21.1013 48.6993L21.0196 48.8136C20.8328 48.9045 20.6662 49.0322 20.5299 49.1891L20.7013 49.3034C20.2468 49.7751 19.8866 50.3293 19.64 50.9361L19.5992 50.9932C19.8278 50.9932 20.2686 50.9932 20.4156 51.1483C20.5625 51.3034 20.4972 51.3361 20.5135 51.5075L20.7013 51.5892C21.3462 51.2871 21.5095 51.2055 21.7952 50.2749V50.2422ZM38.7587 60.3729L38.8158 60.4138L38.7423 60.5281L38.6036 60.4791C38.7587 60.4301 38.6852 60.4383 38.7587 60.3729ZM19.9094 48.0218C19.6564 48.3483 19.5176 48.2993 19.24 48.6585C19.4033 48.7238 19.3217 48.6585 19.4196 48.7728C19.15 48.8733 18.9168 49.0525 18.7502 49.2871C18.7621 49.3601 18.7621 49.4345 18.7502 49.5075C18.7502 49.5075 18.7992 49.5075 18.8319 49.5075C19.5584 49.2789 19.2156 48.8544 19.689 48.4544C19.8115 48.332 19.9829 48.3238 20.1217 48.1687L19.9094 48.0218ZM36.3096 59.0341L36.4321 59.1158L36.4892 59.026L36.3668 58.9525L36.3096 59.0341ZM31.6729 56.1851C31.6968 56.1922 31.7223 56.1922 31.7463 56.1851C31.6892 56.1851 31.6157 56.1362 31.5586 56.0954C31.632 56.2586 31.5586 56.2504 31.6729 56.1851ZM33.8688 58.7484L33.7545 58.675C33.6974 58.7566 33.6974 58.7566 33.7545 58.8545V58.7974L33.8688 58.7484ZM22.6768 51.8749V51.8177C22.8074 51.8177 22.7584 51.8177 22.8891 51.7524H22.8319C22.7584 51.6218 22.8319 51.7034 22.6605 51.6381L22.5299 51.8422L22.6768 51.8749ZM34.677 59.4505L34.4402 59.3035C34.4892 59.4178 34.5219 59.4342 34.5953 59.5729L34.677 59.4505ZM21.2074 53.2463L21.3054 53.0994C21.4485 53.1614 21.6089 53.1708 21.7583 53.126C21.9076 53.0812 22.0364 52.985 22.1217 52.8545C21.6482 52.128 22.3584 52.1851 22.538 51.9728C22.538 51.8749 22.538 51.9239 22.4646 51.8341C22.3095 52.0708 22.138 51.8341 21.885 51.9565C21.7639 52.0652 21.6569 52.1886 21.5666 52.3239C21.1666 52.5524 20.7503 52.5361 20.4074 53.0096C20.7176 53.1647 20.8482 53.0912 21.2074 53.2463ZM33.779 59.4505C33.7055 59.4505 33.6402 59.4015 33.5668 59.3933C33.4851 59.5811 33.4851 59.4587 33.5668 59.6138C33.6501 59.5781 33.7231 59.5219 33.779 59.4505ZM36.0403 61.0832C35.8199 60.9852 35.975 61.0015 35.8117 61.0832C35.8438 61.1482 35.8881 61.2064 35.9423 61.2546L36.0403 61.0832ZM33.1096 59.5729C33.1096 59.4913 33.1096 59.3525 33.0116 59.4668C32.9137 59.5811 32.9871 59.5484 33.1096 59.5484V59.5729ZM35.9097 61.7852L35.7382 61.6709C35.7382 61.7689 35.779 61.7362 35.8688 61.8423L35.9097 61.7852ZM36.2199 62.0709C36.2688 62.0709 36.2933 62.0709 36.3178 62.0709L36.1953 61.9893C36.1545 62.1281 36.1545 62.1281 36.1953 62.177L36.2199 62.0709ZM19.4359 51.1157L19.3217 51.034C19.2322 51.0234 19.1418 51.0234 19.0523 51.034C18.6849 51.1565 18.6196 51.6953 18.0727 51.8504C18.0727 51.9483 18.0727 51.8994 18.1543 51.981C18.6179 51.7406 19.0487 51.4415 19.4359 51.0912V51.1157ZM20.0401 51.7116L19.9829 51.8014H20.0401C20.0645 51.7034 20.0564 51.7851 20.0401 51.6871V51.7116ZM18.1788 50.5687C18.0564 50.6993 18.1053 50.6912 17.9339 50.6993C17.8931 50.8789 17.8686 50.7402 17.9339 50.9198L17.9747 50.8626C18.0727 50.8626 18.1298 50.7565 18.2196 50.6096L18.1788 50.5687ZM34.7178 61.4587C34.7178 61.5566 34.7178 61.5975 34.8974 61.6954C35.0362 61.6383 34.7178 61.4342 34.7178 61.4342V61.4587ZM35.5341 62.3893C35.5341 62.2669 35.5913 62.3077 35.6892 62.1607L35.5749 62.0873L35.477 62.226L35.3055 62.1118L35.2321 62.3566C35.3177 62.3769 35.4066 62.3797 35.4933 62.3648L35.5341 62.3893ZM17.689 50.732H17.7461V50.6749C17.8278 50.6096 17.8359 50.6749 17.7461 50.4953L17.689 50.732ZM34.7668 61.6791L34.6525 61.6056C34.5609 61.706 34.4498 61.7865 34.326 61.8423C34.326 61.9403 34.3259 61.924 34.4402 62.0464C34.498 61.8877 34.6035 61.7508 34.7423 61.6546L34.7668 61.6791ZM35.1341 62.4954C35.1341 62.3893 35.1749 62.4301 35.1341 62.3648L35.077 62.4546L35.1341 62.4954ZM32.6851 60.9689C32.6481 60.9137 32.6336 60.8466 32.6443 60.7811C32.5627 60.977 32.5627 60.8464 32.6443 61.0342L32.6851 60.9689ZM35.5015 63.9811L35.3872 63.9077C35.3872 63.973 35.3872 63.9077 35.4606 64.0465L35.5015 63.9811ZM35.0035 64.6097L35.0443 64.5526L34.8403 64.422C34.8403 64.5934 34.8402 64.422 34.9137 64.6342C34.9193 64.6181 34.9309 64.6048 34.9462 64.5972C34.9615 64.5896 34.9791 64.5882 34.9954 64.5934L35.0035 64.6097Z" fill="white"/>
<path d="M31.5912 80.5294C31.2484 80.1784 30.7259 79.9661 30.3912 79.6559C30.2116 79.4927 29.9504 79.0763 29.7381 78.8967L29.1014 78.6029C28.2361 77.909 27.0606 76.9294 26.0401 76.211C26.0401 75.7865 26.3258 75.5335 25.7136 75.1334C25.4901 75.2433 25.2413 75.2914 24.993 75.2728C24.7447 75.2541 24.5059 75.1694 24.3013 75.0273C24.0993 74.7491 23.837 74.5203 23.534 74.3579C22.6874 73.9472 21.9172 73.3951 21.2564 72.7252C21.036 72.4967 20.6931 72.6436 20.489 72.513C19.8115 71.9368 19.0658 71.446 18.2686 71.0517C18.1053 70.9783 17.9584 70.766 17.9013 70.7252C17.7321 70.6209 17.5546 70.5308 17.3706 70.4558C16.9053 70.1538 16.2277 69.5007 16.1706 69.1333C16.0645 68.4803 16.6767 68.0558 17.1012 67.7211C17.3298 67.5007 17.6482 66.7088 17.9829 66.3905C18.1053 66.268 18.1135 65.819 18.2931 65.5741C18.4727 65.3292 19.0604 65.0843 19.2319 64.5782C19.2727 64.3986 19.2319 64.0966 19.3135 63.8925C19.5586 63.3637 19.9531 62.9182 20.4482 62.6108C21.0605 62.0557 21.0605 61.4843 21.689 61.1006C22.085 61.4258 22.5394 61.6724 23.0279 61.8271C23.0279 61.8271 22.987 61.8271 22.938 61.8271C22.8891 61.8271 23.0115 61.9659 23.0115 61.9659L23.085 61.8435C23.2156 61.8435 23.1666 61.9822 23.1666 61.9822C23.338 62.2244 23.5508 62.4344 23.7952 62.6026C23.7952 62.6026 23.7952 62.6435 23.7952 62.6925C24.7748 62.8394 24.9952 63.4435 25.787 64.0067C25.9688 64.109 26.1434 64.2236 26.3095 64.3496C26.3219 64.437 26.3466 64.5222 26.383 64.6027C26.4238 64.6761 28.2524 65.6721 28.4157 65.7374C28.388 65.7932 28.374 65.8547 28.3748 65.917C28.4238 65.917 28.4728 65.917 28.4891 65.868C28.7014 65.9251 28.5871 66.0966 28.6279 66.1619C28.6687 66.2272 29.3136 66.5701 29.5259 66.7578C29.4606 66.9211 29.4361 66.8231 29.6238 66.9864C29.8769 66.9048 30.3177 67.2395 30.5218 67.4925C31.0769 68.1048 31.5831 68.6517 32.2116 69.264C32.3096 69.264 32.3749 69.5823 32.7014 69.713C33.5178 70.0721 33.7382 70.8477 34.3341 71.0762C35.2304 71.3163 36.0401 71.8061 36.6688 72.4885C36.7913 72.6109 37.2076 72.6763 37.3627 72.9457L37.3056 73.0355C37.3056 73.0844 37.4933 73.2395 37.4933 73.2395C37.7576 73.3764 38.0303 73.4964 38.3097 73.5987C38.2826 73.7142 38.2826 73.8343 38.3097 73.9497C38.4076 74.0559 38.5056 73.9497 38.5791 74.0395C38.8375 74.2498 39.0631 74.4974 39.2485 74.7743C39.5342 75.1661 39.9913 74.9702 40.3342 75.3212C40.4321 75.1824 40.3342 75.2314 40.4321 75.1824C40.4696 75.3081 40.5368 75.4229 40.6281 75.5171C40.6266 75.6825 40.5822 75.8447 40.4992 75.9879C40.4162 76.131 40.2974 76.25 40.1546 76.3334C39.975 76.2192 40.073 76.2028 39.9015 76.3334C40.0077 76.7334 39.5913 76.9947 39.2974 77.3784H39.3546C39.4117 77.3743 39.4689 77.3743 39.526 77.3784L39.4689 77.4682C39.1913 77.5743 39.0607 77.9008 38.7831 77.8845L38.8403 77.7947C39.0689 77.6967 38.9219 77.6069 38.9872 77.4436C39.1476 77.277 39.3287 77.1317 39.526 77.011L39.2893 76.8559C39.2135 76.8452 39.1365 76.8452 39.0607 76.8559H39.1178C39.1259 76.9404 39.1602 77.0203 39.2158 77.0845H39.1587C38.9905 77.0983 38.8308 77.1639 38.7015 77.2722L38.5301 77.1661L38.3587 77.4192C38.4076 77.4192 38.4321 77.4192 38.5138 77.4192L38.4729 77.4763C38.3971 77.4495 38.316 77.4414 38.2363 77.4528C38.1567 77.4641 38.0811 77.4946 38.0158 77.5416C38.0158 77.6641 37.926 77.7375 38.0158 77.9171C38.1382 77.7947 38.1709 77.811 38.3178 77.8274C38.1219 77.9416 38.1219 78.0722 38.1137 78.2682H38.0566C38.0588 78.2355 38.0588 78.2028 38.0566 78.1702L37.9995 78.26C37.9995 78.4804 37.9995 78.3335 37.7954 78.5702L37.8525 78.611C37.9903 78.5649 38.1393 78.5649 38.277 78.611C38.1954 78.8477 38.277 78.8396 38.3913 79.06C37.379 80.0886 35.9423 81.6315 34.8484 82.6846L33.6647 81.8682C33.4688 81.6397 32.0076 80.9702 31.5912 80.5294ZM21.934 61.3945L21.8197 61.321C21.8605 61.3863 21.8197 61.321 21.9176 61.419L21.934 61.3945ZM24.6605 65.419C24.4809 65.1333 24.3503 65.1333 24.5462 64.8476C24.6115 64.8068 24.6034 64.8884 24.6768 64.766H24.6197C24.6197 64.619 24.6197 64.668 24.4728 64.5455C24.3477 64.6068 24.2118 64.6429 24.0728 64.6517C24.2034 64.4476 24.1952 64.5292 24.0728 64.3496C23.9748 64.4394 24.0728 64.4068 23.9421 64.4231C24.0646 64.3006 24.1707 64.3251 24.1381 64.2598C24.1054 64.1945 24.0238 64.1047 23.885 64.0149L23.787 64.1537C23.5421 64.1537 23.4768 64.317 23.1748 64.2108C23.134 64.0149 23.1176 64.0476 22.8891 63.8925C22.6605 63.9904 22.587 64.1537 22.4237 64.2108C22.2605 64.268 22.4237 64.2108 22.2768 64.2108C22.2135 64.0273 22.1104 63.86 21.9748 63.721C21.9013 63.721 21.9748 63.721 21.8197 63.721L21.7789 63.7782C21.836 64.0149 21.6482 64.2272 21.4768 64.3659L21.5993 64.4394C21.6969 64.3817 21.8063 64.3466 21.9193 64.3367C22.0323 64.3268 22.1461 64.3424 22.2523 64.3823C22.1544 64.6027 22.2523 64.6108 22.2931 64.8231C22.4489 64.8746 22.5893 64.9644 22.7013 65.0843L22.7993 64.9456C22.636 64.8721 22.7013 64.9455 22.6197 64.8313L22.7421 64.9047C22.7899 64.8751 22.8451 64.8594 22.9013 64.8594C22.9576 64.8594 23.0127 64.8751 23.0605 64.9047C22.9952 65.068 22.987 65.019 23.0605 65.0843C23.2319 65.1986 23.4523 65.1823 23.583 65.4272L23.5258 65.517C23.7054 65.8027 23.8687 65.517 24.1462 65.8843C24.2197 65.77 24.2197 65.77 24.3177 65.7455C24.4156 65.7211 24.2115 65.966 24.3177 65.9007V65.8435C24.5462 65.7211 24.5136 65.6558 24.6605 65.419ZM25.9258 65.7619L25.8116 65.6803C25.8524 65.7537 25.8115 65.6802 25.8932 65.819L25.9258 65.7619ZM22.4972 63.6231C22.4962 63.7306 22.5099 63.8377 22.538 63.9414L22.5952 63.9823C22.6605 63.819 22.5952 63.9006 22.7258 63.7782C22.6664 63.7053 22.5869 63.6513 22.4972 63.6231ZM23.9993 64.6109C24.1136 64.5619 23.9993 64.766 23.9993 64.766C23.9993 64.766 23.9993 64.7006 23.9258 64.6272C23.8523 64.5537 23.9748 64.6435 23.9993 64.6109ZM26.6524 66.3578L26.5381 66.2843C26.4156 66.2843 26.4564 66.2843 26.3258 66.2272C26.3258 66.3251 26.432 66.3823 26.5789 66.4721L26.6524 66.3578ZM25.7218 65.8272L25.6075 65.7537C25.6225 65.8019 25.6475 65.8464 25.6809 65.8843L25.7218 65.8272ZM23.0768 64.2517C23.0768 64.317 23.0768 64.2517 23.0768 64.3741C23.0523 64.2843 23.0442 64.3496 23.0768 64.2517ZM24.1054 65.2639L24.2034 65.117C24.1707 65.2231 24.1952 65.1659 24.1054 65.2639ZM23.2319 64.6435L23.3462 64.717C23.3462 64.717 23.2972 64.717 23.2646 64.717V64.7741C23.2482 64.6761 23.1993 64.7496 23.2483 64.6435H23.2319ZM21.3543 63.9088C21.4931 63.7047 21.5421 63.819 21.4686 63.6067C21.3788 63.7537 21.338 63.8108 21.3543 63.9088ZM37.8362 74.8804C37.9913 74.8804 37.9913 74.8803 38.1464 74.7906L38.0893 74.6273C38.0242 74.5913 37.9514 74.5717 37.877 74.5702C37.7845 74.6791 37.725 74.8122 37.7056 74.9538C37.7709 74.962 37.7219 74.962 37.8362 74.8804ZM21.7952 64.1129V64.0557L21.9094 64.1374V64.1945L21.7952 64.1129ZM22.9625 65.1741L22.8483 65.1007C22.8483 65.1905 22.8482 65.1415 22.9299 65.2312L22.9625 65.1741ZM37.5505 74.9702L37.4933 75.06L37.6076 75.1334C37.6484 74.962 37.6974 75.0355 37.5505 74.962V74.9702ZM39.624 76.5375C39.6304 76.4888 39.6304 76.4394 39.624 76.3906L39.5505 76.5049L39.624 76.5375ZM35.0851 74.6273C35.3056 74.8559 35.0443 74.6926 35.2402 74.8967C35.0903 74.9499 34.9531 75.0342 34.8378 75.1439C34.7225 75.2536 34.6315 75.3863 34.5708 75.5334C34.3341 75.46 34.5055 75.4518 34.326 75.5334C34.5133 75.6956 34.6636 75.896 34.7668 76.1212C34.9545 76.0314 34.9709 75.9987 35.1913 76.1212C35.2397 76.0518 35.2654 75.9691 35.2647 75.8845C35.4602 76.0505 35.7102 76.1382 35.9665 76.1307C36.2228 76.1231 36.4672 76.0209 36.6525 75.8437L36.5382 75.7702C36.326 75.8355 36.2117 75.7702 35.9505 75.5906L36.0484 75.4437L35.9341 75.3702C35.8958 75.307 35.8492 75.2493 35.7954 75.1987C35.7415 75.2923 35.6623 75.3687 35.5668 75.4191H35.5096L35.6484 75.2151C35.7527 75.179 35.8452 75.115 35.9157 75.0301C35.9862 74.9452 36.0321 74.8426 36.0484 74.7334C35.965 74.5833 35.8605 74.4458 35.7382 74.3252C35.5155 74.4024 35.2975 74.4924 35.0851 74.5946V74.6273ZM37.2974 77.6151C37.4387 77.5861 37.5698 77.5202 37.6773 77.4242C37.7848 77.3281 37.865 77.2053 37.9097 77.0682L37.6239 76.8804C37.926 76.4151 37.877 76.5539 38.1954 76.26C38.1792 76.1698 38.1518 76.0821 38.1137 75.9988C37.5668 75.9988 37.477 76.4559 37.1586 76.6926C37.083 76.6189 37.0294 76.5256 37.0035 76.4232C37.1831 76.464 37.5178 76.1457 37.5178 76.1457C37.5178 76.1457 37.5178 76.0722 37.5178 76.0477C37.1932 76.2128 36.8424 76.3205 36.4811 76.3661C36.4441 76.4307 36.4244 76.5038 36.4239 76.5783L36.5954 76.6845C36.6933 76.6845 36.5954 76.6845 36.7505 76.6845C36.6604 76.7797 36.6082 76.9045 36.6035 77.0355C36.7505 76.9294 36.6852 76.9702 36.8321 76.9375L36.7178 77.1171C36.6199 77.1171 36.5627 77.2233 36.4648 77.362L36.5872 77.4436C36.6737 77.3782 36.781 77.3463 36.8892 77.3539C36.8286 77.4415 36.7894 77.5421 36.775 77.6477C36.9517 77.6605 37.1292 77.6384 37.2974 77.5825V77.6151ZM20.2523 64.8639C20.0769 65.0465 19.8857 65.2131 19.6809 65.3619L19.8523 65.4762C20.0972 65.2231 20.2278 65.3456 20.4809 65.019C20.4237 65.019 20.3829 64.9129 20.3258 64.8721C20.2686 64.8313 20.2768 64.8557 20.2523 64.8313V64.8639ZM23.1176 67.0435V66.9211C23.1176 66.7252 23.1176 66.7741 22.8809 66.5945C22.6768 66.9619 22.6605 66.8639 22.3584 67.1252V67.2231C22.4891 67.2721 22.4156 67.2231 22.5136 67.2231C22.71 67.139 22.9118 67.0682 23.1176 67.0109V67.0435ZM38.1219 76.8396L37.9995 76.7661C38.0811 76.8967 38.0076 76.8885 38.1219 76.8396ZM35.0525 75.5253C34.9395 75.5495 34.8226 75.5495 34.7096 75.5253L34.7831 75.411C34.9107 75.3981 35.0392 75.3981 35.1668 75.411L35.1096 75.5008L35.0525 75.5253ZM21.7952 67.9578C21.6156 67.7444 21.4646 67.5084 21.3462 67.2558C21.2972 67.0109 21.4442 66.8558 21.3462 66.6598C21.2482 66.4639 21.2401 66.5047 21.1013 66.4149L21.0196 66.5292C20.8328 66.6202 20.6662 66.7479 20.5299 66.9048L20.7013 67.019C20.2432 67.4878 19.8825 68.0427 19.64 68.6517L19.5992 68.7089C19.8278 68.7089 20.2686 68.7089 20.4156 68.864C20.5625 69.0191 20.4972 69.0436 20.5135 69.2232C20.5775 69.2469 20.6402 69.2742 20.7013 69.3048C21.3462 68.9456 21.5095 68.8885 21.7952 67.9578ZM38.7587 78.0559L38.8158 78.0968L38.7587 78.2273C38.7138 78.2074 38.6673 78.191 38.6199 78.1784C38.7586 78.1131 38.6852 78.1212 38.7587 78.0559ZM19.9013 65.7292C19.6482 66.0558 19.5094 66.0068 19.2319 66.366C19.3951 66.4313 19.3135 66.366 19.4115 66.4802C19.1422 66.5772 18.9088 66.7538 18.7421 66.9864C18.7534 67.0594 18.7534 67.1338 18.7421 67.2068C18.7421 67.2068 18.791 67.2068 18.8237 67.2068C19.5502 66.9782 19.2074 66.5456 19.6809 66.1537C19.8033 66.0313 19.9747 66.0149 20.1135 65.8598L19.9013 65.7292ZM36.3096 76.7171L36.4321 76.7906L36.4892 76.709L36.3668 76.6355L36.3096 76.7171ZM31.6892 73.8844C31.7132 73.8915 31.7387 73.8915 31.7626 73.8844C31.7055 73.8436 31.632 73.8355 31.5749 73.7946C31.632 73.9416 31.5586 73.9252 31.6729 73.8844H31.6892ZM33.8851 76.4477L33.7709 76.3661C33.7137 76.4559 33.7137 76.4559 33.7709 76.5539V76.4967L33.8851 76.4477ZM22.6768 69.5742V69.517C22.8074 69.517 22.7584 69.517 22.8891 69.4436H22.8319C22.7584 69.3048 22.8319 69.3946 22.6605 69.3293L22.5299 69.5334L22.6768 69.5742ZM34.677 77.1579L34.4402 77.011C34.4865 77.1012 34.5383 77.1885 34.5953 77.2722L34.677 77.1579ZM21.2401 70.9211L21.338 70.7824C21.4811 70.8444 21.6415 70.8538 21.7909 70.809C21.9403 70.7642 22.069 70.668 22.1544 70.5374C21.6809 69.8109 22.3911 69.8599 22.5707 69.6476C22.5707 69.5578 22.5707 69.6068 22.4972 69.517C22.3421 69.7456 22.1707 69.517 21.9176 69.6313C21.8004 69.7437 21.6938 69.8667 21.5993 69.9987C21.1993 70.2354 20.7829 70.2191 20.4401 70.6925C20.7176 70.8803 20.8482 70.7742 21.2074 70.9211H21.2401ZM33.8117 77.0845C33.7382 77.0845 33.6729 77.0436 33.5994 77.0355C33.5178 77.2232 33.5178 77.1008 33.5994 77.2559C33.6677 77.2083 33.7282 77.1504 33.779 77.0845H33.8117ZM36.0729 78.7171C35.8525 78.611 36.0076 78.6355 35.8443 78.7171C35.8764 78.7821 35.9208 78.8404 35.9749 78.8886L36.0729 78.7171ZM33.1423 77.1988C33.1423 77.1253 33.1423 76.9783 33.0443 77.1008C32.9463 77.2232 32.9871 77.2233 33.1096 77.2233L33.1423 77.1988ZM35.9423 79.4192L35.7709 79.3049C35.7709 79.4029 35.8117 79.3702 35.9015 79.4764L35.9423 79.4192ZM36.2525 79.7049C36.3015 79.7049 36.326 79.7049 36.3505 79.7049L36.228 79.6314C36.1872 79.7702 36.1872 79.7702 36.228 79.811L36.2525 79.7049ZM19.4686 68.7415L19.3543 68.668C19.2652 68.6531 19.1741 68.6531 19.0849 68.668C18.7176 68.7905 18.6523 69.3293 18.1053 69.4844C18.1053 69.5823 18.1053 69.5334 18.187 69.615C18.6382 69.3872 19.0581 69.1018 19.4359 68.766L19.4686 68.7415ZM20.0727 69.3456L20.0156 69.4272L20.0727 69.468C20.0645 69.3864 20.0564 69.468 20.0401 69.3701L20.0727 69.3456ZM18.2114 68.2027C18.089 68.3333 18.138 68.317 17.9666 68.3333C17.9257 68.5129 17.9012 68.3333 17.9666 68.5537L18.0074 68.4966C18.1053 68.4966 18.1625 68.3905 18.2523 68.2435L18.2114 68.2027ZM34.7504 79.0927C34.7595 79.1435 34.7805 79.1915 34.8118 79.2326C34.843 79.2738 34.8835 79.3069 34.93 79.3294C35.0362 79.3212 34.7178 79.1172 34.7178 79.1172L34.7504 79.0927ZM35.5668 80.0233C35.5668 79.9008 35.6239 79.9416 35.7219 79.7947L35.6076 79.7213L35.4933 79.86L35.3219 79.7457L35.2484 79.9906C35.3256 80.0253 35.4087 80.0448 35.4933 80.0478L35.5668 80.0233ZM17.7217 68.3578L17.7788 68.3986V68.3415C17.8604 68.2762 17.8686 68.3415 17.7788 68.1619L17.7217 68.3578ZM34.7994 79.3131L34.6851 79.2314C34.596 79.3364 34.4844 79.4201 34.3586 79.4764C34.3586 79.5743 34.3586 79.5498 34.4729 79.6805C34.5299 79.5439 34.623 79.4253 34.7423 79.3376L34.7994 79.3131ZM35.1668 80.1294C35.1668 80.0233 35.2076 80.0723 35.1668 80.007L35.1096 80.0967L35.1668 80.1294ZM32.7178 78.611C32.6808 78.5559 32.6662 78.4888 32.6769 78.4233C32.5953 78.611 32.5953 78.4886 32.6769 78.6682L32.7178 78.611ZM35.5341 81.6233L35.4198 81.5498C35.4198 81.6152 35.4198 81.5498 35.4933 81.6804L35.5341 81.6233ZM35.0362 82.2519L35.077 82.1947L34.8729 82.0641C34.8729 82.2356 34.8729 82.0641 34.9464 82.2682C34.9571 82.2709 34.967 82.276 34.9755 82.283C34.984 82.2901 34.9908 82.299 34.9954 82.309L35.0362 82.2519Z" fill="white"/>
<path d="M31.5912 98.0965C31.2484 97.7454 30.7259 97.525 30.3912 97.223C30.2116 97.0597 29.9504 96.6434 29.7381 96.4556L29.1014 96.1617C28.2361 95.4678 27.0606 94.4882 26.0401 93.778C26.0401 93.3454 26.3258 93.0923 25.7136 92.7004C25.4891 92.8062 25.241 92.8521 24.9935 92.8335C24.746 92.8149 24.5075 92.7325 24.3013 92.5943C24.1015 92.3141 23.8387 92.0849 23.534 91.925C22.6874 91.5143 21.9172 90.9621 21.2564 90.2923C21.036 90.0637 20.6931 90.2106 20.489 90.0719C19.8074 89.5013 19.0623 89.0109 18.2686 88.6106C18.1053 88.5453 17.9584 88.3249 17.9013 88.2923C17.7321 88.1879 17.5546 88.0978 17.3706 88.0229C16.9053 87.7208 16.2277 87.0596 16.1706 86.7004C16.0645 86.0473 16.6767 85.6228 17.1012 85.28C17.3298 85.0596 17.6482 84.2759 17.9829 83.9575C18.1053 83.8351 18.1135 83.3779 18.2931 83.1412C18.4727 82.9044 19.0604 82.6595 19.2319 82.1534C19.2727 81.9656 19.2319 81.6718 19.3135 81.4595C19.5586 80.9308 19.9531 80.4853 20.4482 80.1779C21.0605 79.6309 21.0605 79.0513 21.689 78.6758C22.0873 78.9956 22.5412 79.2392 23.0279 79.3942C23.0279 79.3942 22.987 79.3942 22.938 79.3942C22.8891 79.3942 23.0115 79.5248 23.0115 79.5248L23.085 79.4105C23.2156 79.4105 23.1666 79.5411 23.1666 79.5411C23.3358 79.7851 23.549 79.9955 23.7952 80.1615C23.7952 80.1615 23.7952 80.2105 23.7952 80.2595C24.7748 80.4064 24.9952 81.0105 25.787 81.5738C25.9707 81.6697 26.1456 81.7817 26.3095 81.9085C26.322 81.9985 26.3467 82.0864 26.383 82.1697C26.4238 82.235 28.2524 83.231 28.4157 83.2963C28.3879 83.3549 28.3739 83.4191 28.3748 83.484C28.4238 83.484 28.4728 83.484 28.4891 83.435C28.7014 83.4922 28.5871 83.6636 28.6279 83.7289C28.6687 83.7942 29.3136 84.1371 29.5259 84.3167C29.4606 84.48 29.4361 84.382 29.6238 84.5452C29.8769 84.4718 30.3177 84.7983 30.5218 85.0595C31.0769 85.6718 31.5831 86.2106 32.2116 86.831C32.3096 86.831 32.3749 87.1494 32.7014 87.28C33.5178 87.6392 33.7382 88.4147 34.3341 88.6433C35.232 88.8796 36.0427 89.3699 36.6688 90.0555C36.7913 90.178 37.2076 90.2433 37.3627 90.5127L37.3056 90.5943C37.3056 90.6433 37.4933 90.8065 37.4933 90.8065C37.7576 90.9434 38.0303 91.0634 38.3097 91.1657C38.2823 91.2784 38.2823 91.396 38.3097 91.5086C38.4076 91.6148 38.5056 91.5086 38.5791 91.6066C38.8394 91.8148 39.0653 92.0627 39.2485 92.3413C39.5342 92.7331 39.9913 92.5372 40.3342 92.8882C40.4321 92.7413 40.3342 92.7903 40.4321 92.7413C40.4663 92.8684 40.534 92.984 40.6281 93.076C40.6258 93.2412 40.5811 93.4031 40.4982 93.5461C40.4152 93.689 40.2969 93.8083 40.1546 93.8923C39.975 93.778 40.073 93.7617 39.9015 93.8923C40.0077 94.2923 39.5913 94.5535 39.2974 94.9454H39.3546H39.575L39.5178 95.0352C39.2403 95.1413 39.1097 95.4678 38.8321 95.4515L38.8893 95.3617C39.1178 95.2638 38.9709 95.1658 39.0362 95.0025C39.1988 94.8383 39.3795 94.6931 39.575 94.5699L39.3383 94.423C39.2624 94.4122 39.1855 94.4122 39.1097 94.423H39.1668C39.1764 94.5071 39.2105 94.5865 39.2648 94.6515H39.2076C39.0395 94.6711 38.8807 94.7392 38.7505 94.8474L38.5791 94.7331L38.4076 94.9944C38.4591 94.9879 38.5112 94.9879 38.5627 94.9944L38.5219 95.0515C38.4451 95.0284 38.3641 95.023 38.2849 95.0358C38.2057 95.0485 38.1305 95.079 38.0648 95.125C38.0648 95.2474 37.975 95.3127 38.0648 95.5005C38.1872 95.3699 38.2199 95.3944 38.3668 95.4107C38.1709 95.525 38.1709 95.6475 38.1627 95.8515L38.1056 95.8107C38.1083 95.7808 38.1083 95.7508 38.1056 95.7209L38.0484 95.8026C38.0484 96.023 38.0484 95.8842 37.8444 96.1209L37.9015 96.1617C38.0392 96.1151 38.1883 96.1151 38.326 96.1617C38.2444 96.4066 38.326 96.3903 38.4403 96.6107C37.428 97.6475 35.9913 99.1904 34.8974 100.235L33.7137 99.4597C33.4688 99.2067 32.0076 98.5373 31.5912 98.0965ZM21.934 78.9615L21.8197 78.8799C21.8605 78.9452 21.8197 78.8799 21.9176 78.986L21.934 78.9615ZM24.6605 82.9861C24.4809 82.7003 24.3503 82.7003 24.5462 82.4146C24.6115 82.4146 24.6034 82.4146 24.6768 82.333H24.6197C24.6197 82.1942 24.6197 82.2432 24.4728 82.1207C24.3464 82.1784 24.2111 82.2143 24.0728 82.2269C24.2034 82.0228 24.1952 82.0963 24.0728 81.9167C23.9748 82.0146 24.0728 81.9738 23.9421 81.9983C24.0646 81.8677 24.1707 81.9003 24.1381 81.835C24.1054 81.7697 24.0238 81.6799 23.885 81.5819L23.787 81.7289C23.5421 81.7289 23.4768 81.8921 23.1748 81.7779C23.134 81.5901 23.1176 81.6146 22.8891 81.4676C22.6605 81.5656 22.587 81.7289 22.4237 81.786C22.2605 81.8432 22.4237 81.786 22.2768 81.786C22.2156 81.6015 22.1122 81.4338 21.9748 81.2962C21.9013 81.2962 21.9748 81.2962 21.8197 81.2962L21.7789 81.3534C21.836 81.5901 21.6482 81.8024 21.4768 81.9411L21.5993 82.0146C21.6977 81.9591 21.8065 81.9247 21.9189 81.9134C22.0314 81.9022 22.1449 81.9144 22.2523 81.9493C22.1544 82.1697 22.2523 82.186 22.2931 82.3901C22.448 82.4474 22.5877 82.5396 22.7013 82.6595L22.7993 82.5126C22.636 82.4473 22.7013 82.5126 22.6197 82.3983L22.7421 82.4799C22.8972 82.4146 22.8972 82.4146 23.0605 82.4799C22.9952 82.6432 22.987 82.6024 23.0605 82.6677C23.2319 82.782 23.4523 82.7575 23.583 83.0105L23.5258 83.0922C23.7054 83.3779 23.8687 83.0922 24.1462 83.4677C24.2197 83.3452 24.2197 83.3452 24.3177 83.3289C24.4156 83.3126 24.2115 83.5493 24.3177 83.484V83.4269C24.5462 83.2799 24.5136 83.2146 24.6605 82.9861ZM25.9258 83.3207L25.8116 83.2473C25.8524 83.3126 25.8115 83.2473 25.8932 83.3779L25.9258 83.3207ZM22.4972 81.1901C22.4958 81.2949 22.5095 81.3994 22.538 81.5003H22.5952C22.6605 81.3371 22.5952 81.4269 22.7258 81.3044C22.6613 81.2464 22.5823 81.2069 22.4972 81.1901ZM23.9993 82.1779C24.1136 82.1289 23.9993 82.3248 23.9993 82.3248C23.9993 82.3248 23.9993 82.2595 23.9258 82.1942C23.8523 82.1289 23.9748 82.2024 23.9993 82.1779ZM26.6524 83.9248L26.5381 83.8432C26.4156 83.8432 26.4564 83.8432 26.3258 83.7942C26.3258 83.884 26.432 83.9412 26.5789 84.0391L26.6524 83.9248ZM25.7218 83.3942L25.6075 83.3126C25.6221 83.3634 25.6472 83.4107 25.6809 83.4514L25.7218 83.3942ZM23.0768 81.8187C23.0768 81.884 23.0768 81.8187 23.0768 81.9411C23.0523 81.8432 23.0442 81.9248 23.0768 81.8187ZM24.1054 82.8228L24.2034 82.684C24.1707 82.7901 24.1952 82.7575 24.1054 82.8228ZM23.2319 82.2105L23.3462 82.284C23.3462 82.284 23.2972 82.284 23.2646 82.284V82.3411C23.2482 82.235 23.1993 82.3085 23.2483 82.2105H23.2319ZM21.3543 81.4758C21.4931 81.2717 21.5421 81.386 21.4686 81.1738C21.3788 81.3207 21.338 81.3779 21.3543 81.4922V81.4758ZM37.8362 92.4474C37.9913 92.4474 37.9913 92.4474 38.1464 92.3576L38.0893 92.1943C38.0242 92.1583 37.9514 92.1387 37.877 92.1372C37.7845 92.2461 37.725 92.3793 37.7056 92.5209C37.7709 92.4801 37.7219 92.4882 37.8362 92.4474ZM21.7952 81.6799V81.6227L21.9094 81.6962V81.7534L21.7952 81.6799ZM22.9625 82.733L22.8483 82.6595C22.8483 82.7575 22.8482 82.7085 22.9299 82.7983L22.9625 82.733ZM37.5505 92.529L37.4933 92.6107L37.6076 92.6923C37.6484 92.48 37.6974 92.5943 37.5505 92.5045V92.529ZM39.624 94.0964C39.6308 94.0449 39.6308 93.9928 39.624 93.9413L39.5505 94.0556L39.624 94.0964ZM35.0851 92.1862C35.3056 92.4147 35.0443 92.2433 35.2402 92.4556C35.0895 92.5074 34.9517 92.5911 34.8362 92.701C34.7207 92.8109 34.6302 92.9444 34.5708 93.0923C34.3341 93.0189 34.5055 93.0025 34.326 93.0923C34.5129 93.2515 34.6632 93.4492 34.7668 93.6719C34.9545 93.5903 34.9709 93.5576 35.1913 93.6719C35.2414 93.6002 35.2671 93.5144 35.2647 93.427C35.4543 93.6002 35.7018 93.6963 35.9586 93.6963C36.2154 93.6963 36.463 93.6002 36.6525 93.427L36.5382 93.3536C36.326 93.4189 36.2117 93.3535 35.9505 93.1739L36.0484 93.027L35.9341 92.9535C35.8958 92.8904 35.8492 92.8327 35.7954 92.7821C35.739 92.8737 35.6604 92.9495 35.5668 93.0025H35.5096L35.6484 92.7984C35.7542 92.7648 35.8481 92.7016 35.919 92.6162C35.99 92.5309 36.0349 92.4269 36.0484 92.3168C35.9629 92.168 35.8587 92.0308 35.7382 91.9086C35.5159 91.9805 35.2979 92.065 35.0851 92.1617V92.1862ZM37.2974 95.174C37.4387 95.145 37.5698 95.0791 37.6773 94.983C37.7848 94.887 37.865 94.7642 37.9097 94.627L37.6239 94.4311C37.7642 94.1854 37.9599 93.9757 38.1954 93.8188C38.1804 93.7284 38.1529 93.6405 38.1137 93.5576C37.5668 93.5576 37.477 94.0066 37.1586 94.2515C37.0846 94.1765 37.0312 94.0837 37.0035 93.9821C37.1831 94.0229 37.5178 93.7046 37.5178 93.7046C37.5178 93.7046 37.5178 93.6229 37.5178 93.6066C37.1914 93.7656 36.8412 93.8703 36.4811 93.9168C36.445 93.9818 36.4254 94.0547 36.4239 94.129L36.5954 94.2433C36.6933 94.2433 36.5954 94.2433 36.7505 94.2433C36.6611 94.3423 36.6091 94.4693 36.6035 94.6025C36.7505 94.4964 36.6852 94.5372 36.8321 94.5046L36.7178 94.676C36.6199 94.676 36.5627 94.7821 36.4648 94.9291L36.5872 95.0025C36.6771 94.944 36.782 94.9129 36.8892 94.9127C36.8295 95.0038 36.7905 95.1069 36.775 95.2148C36.9516 95.2241 37.1285 95.202 37.2974 95.1495V95.174ZM20.2523 82.4228C20.0791 82.6052 19.8876 82.7693 19.6809 82.9126L19.8523 83.0269C20.0972 82.782 20.2278 82.9044 20.4809 82.5779C20.4237 82.5779 20.3829 82.4718 20.3258 82.431C20.2686 82.3901 20.2768 82.4146 20.2523 82.3983V82.4228ZM23.1176 84.6024V84.4799C23.1176 84.284 23.1176 84.333 22.8809 84.1534C22.6768 84.5208 22.6605 84.4228 22.3584 84.684V84.7738C22.4891 84.8228 22.4156 84.7738 22.5136 84.7738C22.709 84.6914 22.911 84.6259 23.1176 84.5779V84.6024ZM38.1219 94.3984L37.9995 94.325C38.0811 94.4637 38.0076 94.4556 38.1219 94.4066V94.3984ZM35.0525 93.0842C34.9395 93.1084 34.8226 93.1084 34.7096 93.0842L34.7831 92.9617C34.9123 92.9649 35.0409 92.9813 35.1668 93.0107L35.1096 93.1004L35.0525 93.0842ZM21.7952 85.5167C21.6137 85.3017 21.4626 85.0627 21.3462 84.8065C21.2972 84.5697 21.4442 84.4147 21.3462 84.2106C21.2482 84.0065 21.2401 84.0636 21.1013 83.9657L21.0196 84.0799C20.8362 84.1763 20.6706 84.3033 20.5299 84.4555L20.7013 84.5698C20.2468 85.0414 19.8866 85.5956 19.64 86.2024L19.5992 86.2596C19.8278 86.2596 20.2686 86.2595 20.4156 86.4228C20.5625 86.5861 20.4972 86.6024 20.5135 86.7738C20.5707 86.7738 20.6441 86.8229 20.7013 86.8637C21.3462 86.5126 21.5095 86.4555 21.7952 85.5249V85.5167ZM38.7587 95.6229H38.8158L38.7423 95.7372H38.6036C38.7587 95.6801 38.6852 95.6883 38.7587 95.6229ZM19.9013 83.2881C19.6482 83.6228 19.5094 83.5738 19.2319 83.9248C19.3951 83.9983 19.3135 83.9248 19.4115 84.0391C19.1419 84.1397 18.9087 84.3188 18.7421 84.5534C18.7534 84.6265 18.7534 84.7008 18.7421 84.7738C18.7421 84.7738 18.791 84.7738 18.8237 84.7738C19.5502 84.5534 19.2074 84.1208 19.6809 83.7289C19.8033 83.5983 19.9747 83.5901 20.1135 83.435L19.9013 83.2881ZM36.3096 94.2841L36.4321 94.3576L36.4892 94.276L36.3668 94.1944L36.3096 94.2841ZM31.6892 91.4433H31.7626C31.6986 91.4195 31.6359 91.3923 31.5749 91.3617C31.632 91.5005 31.5586 91.4923 31.6729 91.4433H31.6892ZM33.8851 94.0066L33.7709 93.9331C33.7137 94.0229 33.7137 94.0229 33.7709 94.1127V94.0556L33.8851 94.0066ZM22.6931 87.1412V87.0759C22.8238 87.0759 22.7748 87.0759 22.9054 87.0106H22.8483C22.7748 86.88 22.8482 86.9698 22.6768 86.9045L22.5462 87.1004L22.6931 87.1412ZM34.677 94.725L34.4402 94.5699C34.4862 94.6629 34.538 94.7528 34.5953 94.8392L34.677 94.725ZM21.2401 88.4882L21.338 88.3412C21.4811 88.4032 21.6415 88.4127 21.7909 88.3678C21.9403 88.323 22.069 88.2269 22.1544 88.0963C21.6809 87.3698 22.3911 87.4269 22.5707 87.2147C22.5707 87.1167 22.5707 87.1657 22.4972 87.084C22.3421 87.3126 22.1707 87.0841 21.9176 87.1983C21.7985 87.3089 21.6917 87.4321 21.5993 87.5657C21.1993 87.7943 20.7829 87.778 20.4401 88.2515C20.7176 88.4147 20.8482 88.3331 21.2074 88.4882H21.2401ZM33.8117 94.6515C33.7382 94.6515 33.6729 94.6025 33.5994 94.5944C33.5178 94.7903 33.5178 94.6678 33.5994 94.8148C33.6671 94.7696 33.7276 94.7146 33.779 94.6515H33.8117ZM36.0729 96.2842C35.8525 96.1781 36.0076 96.1944 35.8443 96.2842C35.8721 96.3518 35.9171 96.4109 35.9749 96.4556L36.0729 96.2842ZM33.1423 94.7658C33.1423 94.6923 33.1423 94.5454 33.0443 94.6597C32.9463 94.774 32.9871 94.7903 33.1096 94.7903L33.1423 94.7658ZM35.9423 96.9862L35.7709 96.872C35.7709 96.9618 35.8117 96.9372 35.9015 97.0434L35.9423 96.9862ZM36.2525 97.272C36.3015 97.272 36.326 97.272 36.3505 97.272L36.228 97.1985C36.1872 97.3291 36.1872 97.3291 36.228 97.3781L36.2525 97.272ZM19.4686 86.3086L19.3543 86.2351C19.2652 86.2202 19.1741 86.2202 19.0849 86.2351C18.7176 86.3657 18.6523 86.9045 18.1053 87.0514C18.1053 87.1412 18.1053 87.0514 18.187 87.182C18.6382 86.9542 19.0581 86.6688 19.4359 86.333L19.4686 86.3086ZM20.0727 86.9045L20.0156 86.9943L20.0727 87.0351C20.0645 86.9534 20.0564 87.0269 20.0401 86.9289L20.0727 86.9045ZM18.2114 85.7698C18.089 85.8922 18.138 85.8841 17.9666 85.8922C17.9257 86.08 17.9012 85.933 17.9666 86.1126L18.0074 86.0555C18.1053 86.0555 18.1625 85.9493 18.2523 85.8106L18.2114 85.7698ZM34.7504 96.6515C34.7576 96.7041 34.7778 96.754 34.8092 96.7968C34.8405 96.8396 34.8821 96.8738 34.93 96.8964C35.0362 96.8883 34.7178 96.676 34.7178 96.676L34.7504 96.6515ZM35.5668 97.5903C35.5668 97.4678 35.6239 97.5005 35.7219 97.3618L35.6076 97.2801L35.5096 97.4271L35.3382 97.3128L35.2647 97.5495C35.3364 97.5849 35.4138 97.607 35.4933 97.6148L35.5668 97.5903ZM17.7217 85.9249H17.7788V85.8677C17.8604 85.7942 17.8686 85.8677 17.7788 85.68L17.7217 85.9249ZM34.7994 96.872L34.6851 96.7985C34.5938 96.9011 34.4827 96.9844 34.3586 97.0434C34.3586 97.1332 34.3586 97.1168 34.4729 97.2393C34.5345 97.1054 34.6268 96.988 34.7423 96.8964L34.7994 96.872ZM35.1668 97.6883C35.1668 97.5822 35.2076 97.6311 35.1668 97.5658L35.1096 97.6474L35.1668 97.6883ZM32.7178 96.1699C32.6795 96.1122 32.6649 96.0421 32.6769 95.974C32.5953 96.1699 32.5953 96.0474 32.6769 96.227L32.7178 96.1699ZM35.5341 99.1822L35.4198 99.1087C35.4198 99.174 35.4198 99.1087 35.4933 99.2393L35.5341 99.1822ZM35.0362 99.8108L35.077 99.7454L34.8729 99.6148C34.8729 99.7863 34.8729 99.6149 34.9464 99.8271C34.9552 99.8258 34.9643 99.8266 34.9728 99.8294C34.9813 99.8322 34.989 99.837 34.9954 99.8434L35.0362 99.8108Z" fill="white"/>
<path d="M52.8324 141.134C52.8324 141.681 53.1426 141.485 53.1997 141.566C53.1263 140.644 52.7426 141.15 52.8324 141.134Z" fill="white"/>
<path d="M52.0569 132.04L52.1956 132.195L51.8528 130.856L52.0569 132.04Z" fill="white"/>
<path d="M52.0569 123.533C51.4773 124.35 52.1549 126.619 51.9426 128.129L51.812 128.382L52.2855 129.068C52.0978 127.229 52.0214 125.381 52.0569 123.533Z" fill="white"/>
<path d="M53.3221 119.044C53.0936 119.321 53.1262 118.064 53.2487 120.105C53.2487 119.999 53.2895 119.966 53.3058 119.909C53.3221 119.852 53.3058 119.436 53.3221 119.044Z" fill="white"/>
<path d="M53.3059 119.86C53.3059 120.758 53.4937 119.272 53.3059 119.86V119.86Z" fill="white"/>
<path d="M53.1753 115.778L53.3794 116.954C53.51 116.709 53.5427 115.656 53.6406 116.048C53.5263 114.799 53.3957 115.043 53.1753 115.778Z" fill="white"/>
<path d="M52.7507 114.619L52.8323 115.231C52.8895 115.117 52.914 114.962 52.7507 114.619Z" fill="white"/>
<path d="M53.0201 116.521L52.8323 115.231C52.7426 115.395 52.5548 115.419 52.8977 115.819C52.7262 115.713 52.8977 115.974 53.0201 116.521Z" fill="white"/>
<path d="M52.9304 117.256C52.7998 117.917 52.7181 118.774 52.5222 117.591C52.6365 119.86 53.012 119.517 52.9304 117.256Z" fill="white"/>
<path d="M51.4528 123.126L51.2896 124.016L51.4773 124.775C51.3875 124.375 51.6406 123.053 51.4528 123.126Z" fill="white"/>
<path d="M53.4529 108.432C53.3305 108.358 53.1264 108.824 52.9631 108.913L53.1101 109.787C53.2162 109.297 53.2978 108.432 53.4529 108.432Z" fill="white"/>
<path d="M52.9875 108.873L52.7752 107.566C52.7508 108.734 52.8487 108.946 52.9875 108.873Z" fill="white"/>
<path d="M52.1058 114.407L52.5548 116.545L52.0977 113.99L52.1058 114.407Z" fill="white"/>
<path d="M53.4936 103.411L53.7875 104.145L53.3467 102.831L53.4936 103.411Z" fill="white"/>
<path d="M53.4529 100.104C53.6896 100.651 53.8529 99.3617 53.9998 99.9331C53.9446 99.1356 53.7995 98.3469 53.5672 97.582C53.6749 98.4232 53.6363 99.2766 53.4529 100.104Z" fill="white"/>
<path d="M53.2976 96.4229C53.3548 96.7902 53.4527 97.1739 53.5588 97.5821C53.51 97.1881 53.4225 96.7998 53.2976 96.4229Z" fill="white"/>
<path d="M52.8408 105.346C53.0667 105.053 53.1901 104.695 53.1918 104.325L52.8408 104.839V105.346Z" fill="white"/>
<path d="M52.8323 104.856V103.746C52.8568 103.869 52.8486 104.211 52.8323 104.856Z" fill="white"/>
<path d="M52.8327 105.477V105.346C52.7999 105.395 52.7917 105.428 52.8327 105.477Z" fill="white"/>
<path d="M52.4162 110.986C52.2284 110.227 52.0162 108.627 51.7141 110.17C51.959 110.725 52.1223 109.835 52.4162 110.986Z" fill="white"/>
<path d="M52.3998 106.112L52.3181 107.5C52.4079 107.5 52.5467 107.223 52.6447 107.598L52.3998 106.112Z" fill="white"/>
<path d="M52.2937 105.436L52.3998 106.113L52.4325 105.599L52.2937 105.436Z" fill="white"/>
<path d="M52.9712 98.7985C52.8341 98.1436 52.7684 97.4757 52.7753 96.8066C52.71 97.623 52.6691 98.4393 52.6773 99.1985C52.7834 99.3046 52.9794 99.6475 52.9712 98.7985Z" fill="white"/>
<path d="M52.8733 101.738V101.607C52.8242 101.689 52.8078 101.755 52.8733 101.738Z" fill="white"/>
<path d="M52.7836 89.5332L52.718 89.6479H52.7754L52.7836 89.5332Z" fill="white"/>
<path d="M52.6365 99.3295C52.5741 99.763 52.616 100.205 52.7589 100.619C52.7589 100.17 52.7018 99.705 52.7018 99.1989C52.6365 99.1499 52.6365 99.1335 52.6365 99.3295Z" fill="white"/>
<path d="M53.1344 94.3984C53.0609 94.7086 52.9956 95.0597 52.9385 95.427C53.0528 95.125 53.2242 94.5046 53.1344 94.3984Z" fill="white"/>
<path d="M52.9468 101.411V101.493C53.0369 101.305 53.0041 101.329 52.9468 101.411Z" fill="white"/>
<path d="M52.9466 101.411C52.8968 101.134 52.8258 100.861 52.7344 100.595C52.7344 100.954 52.7997 101.289 52.8487 101.582C52.8747 101.522 52.9076 101.464 52.9466 101.411Z" fill="white"/>
<path d="M50.5386 87.3292C50.8651 87.4354 51.1672 88.9619 50.8161 90.3496C51.061 91.6803 52.1223 90.8068 52.7182 89.6476C52.5794 89.6476 52.4488 89.6476 52.2529 88.2435C52.0815 88.717 51.8447 91.2721 51.5508 90.1211C51.3794 88.3088 51.6651 88.6353 51.8365 87.7537C51.4284 88.5047 51.2488 85.4516 50.6529 85.8435L50.8651 87.4354C50.7753 87.4598 50.6284 86.8884 50.5386 87.3292Z" fill="white"/>
<path d="M52.6855 92.2515L52.7264 92.8148C52.802 92.153 52.9498 91.5015 53.1672 90.8719C53.0039 89.9331 52.8815 89.7372 52.7754 89.6719L52.7345 92.4474L52.6855 92.2515Z" fill="white"/>
<path d="M52.7261 95.37C52.3751 94.9292 52.2282 93.5822 51.8445 94.4067C51.8445 96.0394 52.1384 95.5659 52.2935 96.5537C52.2037 93.8843 52.4894 97.3211 52.6853 95.3945C52.7425 95.917 52.767 96.3904 52.7751 96.8312C52.8241 96.3496 52.8731 95.8843 52.9384 95.4516V95.5169C52.8894 95.6312 52.8649 95.672 52.8894 95.5169C52.8928 95.498 52.8928 95.4787 52.8894 95.4598C52.8348 95.4327 52.7893 95.3901 52.7588 95.3374C52.8322 94.521 52.8486 95.2149 52.8894 95.4598H52.9465L52.7588 92.7822C52.6989 93.6435 52.688 94.5075 52.7261 95.37Z" fill="white"/>
<path d="M51.0039 108.751C51.0039 108.669 51.0613 108.669 51.0858 108.661C51.0039 108.489 51.0039 108.432 51.0039 108.751Z" fill="white"/>
<path d="M51.1753 107.615C51.3068 107.926 51.36 108.266 51.3304 108.603C51.2243 109.15 51.159 108.603 51.0447 108.603C51.1345 108.986 51.2978 109.933 51.4692 108.741L51.4202 108.554C51.4741 107.765 51.6791 106.995 52.0243 106.284C51.647 106.66 51.3571 107.114 51.1753 107.615Z" fill="white"/>
<path d="M51.861 101.419L51.6896 99.1982L51.3794 100.333L51.5672 100.276C51.4937 101.533 51.7223 101.264 51.861 101.419Z" fill="white"/>
<path d="M52.9632 89.2801L53.3306 89.574L52.8081 88.2842L52.9632 89.2801Z" fill="white"/>
<path d="M52.9141 86.3826L53.2406 86.4969L53.0447 85.7295L52.9141 86.3826Z" fill="white"/>
<path d="M5.21558 34.3486L5.30536 35.0017C5.29102 34.7821 5.26102 34.5639 5.21558 34.3486Z" fill="white"/>
<path d="M5.24053 29.6229L5.07666 29.5C5.16679 29.7212 5.23234 29.8113 5.24053 29.6229Z" fill="white"/>
<path d="M52.8733 15.4096C53.1753 14.4545 53.6488 13.3932 53.2815 13.5075L52.9304 13.8014C52.9858 14.3375 52.9666 14.8787 52.8733 15.4096Z" fill="white"/>
<path d="M5.59106 60.1861L5.95025 60.9535C5.95025 59.7535 5.77066 60.2678 5.59106 60.1861Z" fill="white"/>
<path d="M52.7835 56.7902C52.9021 56.113 52.973 55.4283 52.9957 54.7412C52.7916 55.729 52.4896 56.529 52.7835 56.7902Z" fill="white"/>
<path d="M1.46021 32.5121C1.52551 32.9121 1.59899 33.0835 1.67246 33.0672C1.61532 32.6346 1.54184 32.406 1.46021 32.5121Z" fill="white"/>
<path d="M52.9957 52.3652C52.9606 52.5079 52.9334 52.6523 52.9141 52.7979C52.9848 53.443 53.0121 54.0921 52.9957 54.7408C53.1906 53.9609 53.1906 53.1451 52.9957 52.3652Z" fill="white"/>
<path d="M15.6074 139.542C15.6793 139.554 15.7504 139.571 15.8204 139.591C15.8368 139.542 15.7467 139.534 15.6074 139.542Z" fill="white"/>
<path d="M42.9057 143.117C42.6363 143.117 42.1955 143.117 41.7874 143.117C42.1594 143.151 42.5337 143.151 42.9057 143.117Z" fill="white"/>
<path d="M51.6657 77.738C51.6247 77.6069 51.5756 77.5086 51.4937 77.4922C51.5774 77.5521 51.6381 77.6388 51.6657 77.738Z" fill="white"/>
<path d="M50.7918 46.2591V46.21C50.718 46.3902 50.7344 46.3902 50.7918 46.2591Z" fill="white"/>
<path d="M52.9058 75.6796C52.9466 75.451 52.9874 75.1898 53.0119 74.8633C52.959 75.1328 52.9236 75.4055 52.9058 75.6796Z" fill="white"/>
<path d="M53.0691 75.5576V76.0964C53.0936 76.1699 53.1344 76.1046 53.0691 75.5576Z" fill="white"/>
<path d="M53.0447 73.9082C53.0617 74.2372 53.0617 74.5669 53.0447 74.8959C53.0447 74.7735 53.0855 74.7245 53.1018 74.7572L53.0447 73.9082Z" fill="white"/>
<path d="M4.3501 103.688C4.35291 103.732 4.35291 103.776 4.3501 103.819C4.47255 104.431 4.47255 104.162 4.3501 103.688Z" fill="white"/>
<path d="M5.28893 45.6795L5.60731 44.1284C6.12977 45.9979 5.95017 47.3448 6.42365 45.8917C5.31343 45.6795 6.30936 39.8835 5.19914 39.6712L5.43586 38.6508C5.43586 38.9447 5.48486 38.9937 5.47669 39.2794C6.00731 37.2957 4.66035 37.81 4.83178 35.2548C4.91341 34.365 5.07667 33.7446 5.20729 34.3487L4.93791 32.365C4.93791 31.7854 5.15014 31.9324 5.12565 32.5038L5.03586 29.4834C4.81803 28.8649 4.63274 28.2355 4.48076 27.5976C4.64403 26.8303 4.60319 27.9813 4.74197 27.7854L4.47259 26.1119C4.75831 25.4343 5.03587 26.8221 4.99506 27.9731C6.10528 26.4139 4.71749 26.5853 5.36239 23.2139L5.50118 24.7894C6.12976 23.769 5.90119 22.5363 6.31752 20.7485C6.11344 21.173 5.32974 24.3323 5.05218 22.5118C5.17237 21.7892 5.139 21.0493 4.95423 20.3404C5.35423 20.3404 5.25627 19.3771 5.23178 18.1771L5.75425 18.2587C5.59914 16.9689 5.3379 17.0669 5.10116 16.3077C5.15014 14.8627 5.55831 14.5607 5.9175 14.226C5.99913 11.9076 5.26444 15.8179 5.16648 13.0831C5.30799 11.2184 5.19817 9.34305 4.83995 7.50755C5.01955 6.16876 5.15831 7.7443 5.31342 7.26266L4.89708 6.07079C4.89708 5.77691 5.03587 5.87487 5.09301 5.92385C4.93791 5.24629 4.57872 5.86671 4.43178 4.7973C4.17872 4.56873 4.30933 4.13609 4.48076 3.79323C4.92158 3.90751 5.35423 4.02995 5.6971 4.08709C5.85676 4.11091 6.01907 4.11091 6.17873 4.08709C6.25729 4.0792 6.33428 4.05995 6.40731 4.02995C6.54544 4.00312 6.68177 3.9677 6.81547 3.92384C7.29711 4.07078 6.57875 4.2422 6.72569 4.44629C8.24919 4.27109 9.75611 3.97353 11.2319 3.55648L13.1094 3.89935C11.7298 3.50751 13.4931 3.04219 15.036 2.66668C14.5462 2.47892 14.1299 2.30749 13.8441 2.23402L16.2932 1.9483C16.587 2.03809 16.3421 2.21768 15.9421 2.42993L16.3911 2.30749C17.2728 2.50341 16.8156 2.80545 16.187 3.12382L15.2972 2.80544C14.685 3.12381 14.1217 3.47484 14.2441 3.77688C14.5109 3.7034 14.7844 3.65692 15.0605 3.63812C14.9054 3.72792 14.7992 3.80139 14.8727 3.85037C14.9462 3.89936 15.2156 3.79322 15.6156 3.66261L16.1789 4.2422L16.3095 4.01363L19.534 4.37282C21.8443 3.78506 23.8443 2.9279 27.5096 2.68299C26.5953 3.11565 27.3137 3.38505 27.2647 3.89118C26.2606 3.3524 24.4239 4.11974 22.53 4.00546C23.5177 4.0626 23.3055 4.3075 23.0524 4.38914L26.4321 3.89935C26.3586 4.31569 27.1504 4.20956 28.0647 4.38099C27.4035 3.56465 30.5872 3.84221 31.9668 3.56465C32.0485 3.83404 31.7219 4.11977 30.0403 4.05446C31.8934 4.66671 32.4403 3.09117 34.2526 3.61363C33.8444 3.61363 33.624 3.61363 33.4362 3.71976C34.3914 3.47486 36.7016 3.67076 36.1873 3.9075H35.7791C38.4975 4.00546 44.0649 3.90749 44.4649 3.21361C44.3627 3.57203 44.1876 3.90553 43.9506 4.19322L46.3997 3.02587C47.2671 2.57566 48.1645 2.18562 49.0854 1.85851C48.7344 2.15239 48.9221 2.67485 48.7752 3.13199C48.7087 3.38383 48.5794 3.61472 48.3996 3.80314C48.2197 3.99156 47.9951 4.13136 47.7466 4.20954C48.1958 4.36697 48.6852 4.36697 49.1344 4.20954C49.0691 4.16872 49.1344 3.94832 49.1344 3.73608C49.149 3.62565 49.1992 3.52297 49.2772 3.44348C49.3552 3.36398 49.4569 3.31196 49.567 3.29525C49.7793 3.46668 49.8528 3.57282 49.812 3.64629L49.6079 4.46263C49.5175 4.80032 49.3945 5.12839 49.2405 5.44222C49.3711 5.07487 50.3099 5.06671 50.2773 6.19326C50.1385 6.02999 49.3548 6.28304 49.2568 5.89936L50.1712 8.50348C50.0079 7.85858 49.3548 8.38921 49.1344 8.97697C49.314 8.70758 49.1344 11.2301 49.2079 11.9239L49.4283 10.8219C49.2895 13.7607 50.7181 13.728 50.6691 16.6424C50.4813 16.2913 49.5017 15.7689 49.3875 17.2546C49.8528 17.9403 51.6487 20.2669 52.0079 22.8547L51.7385 23.3527L52.0487 25.3282C50.9506 23.2092 50.0225 21.0063 49.2732 18.7404C49.0609 19.8424 48.9548 19.0506 48.9793 20.6996C48.7262 21.2792 48.5956 19.8016 48.5793 19.3118L48.416 23.1567C48.9711 22.9853 48.9711 26.0874 49.4283 25.9405L48.8568 21.7771C49.4038 21.6057 50.416 24.1853 50.3181 26.9037C50.0977 27.5976 49.3385 26.3894 49.1589 26.4466C49.3799 27.3624 49.4516 28.3079 49.3711 29.2466L49.0773 28.0874C48.865 29.6058 49.8038 30.5364 49.2813 32.3813C49.2813 33.0099 48.5711 34.2589 48.8977 34.365C49.5262 33.3446 51.461 33.1405 51.9344 33.8263C51.7009 35.1803 51.3957 36.5209 51.0201 37.8426C50.5303 38.8794 49.8528 36.2916 49.4283 37.1651C49.5834 37.2059 49.763 37.7773 49.8283 37.9814C49.6977 38.6427 49.363 37.712 49.4283 39.1406C49.9834 39.3855 49.3793 42.0631 49.9017 39.8263C50.0569 41.2223 49.7875 41.3121 49.812 42.9611C50.1712 42.4386 51.0283 44.4386 51.1916 45.8427C51.0528 45.7611 50.865 46.0795 50.7834 46.2264C50.7344 49.0999 50.4814 50.6428 50.4732 53.3286C50.3426 53.5735 50.1793 54.8714 49.9344 54.3163C50.1179 54.8194 50.2199 55.3485 50.2365 55.8837C49.7548 57.5164 50.163 54.0388 49.5834 55.2633C49.9099 55.3612 50.0324 57.4021 50.2283 58.5776C50.7344 58.2103 50.3263 55.8592 50.1222 54.6755C50.8161 54.6755 51.5344 56.7245 51.8528 59.5246C52.0242 61.7532 51.412 60.4878 51.5099 60.8797C51.3875 65.0593 52.71 64.4389 52.212 67.9165C51.7712 69.2879 51.3385 67.9737 51.0201 68.2839C50.8569 66.4716 51.3059 65.5001 51.2814 64.2675L51.0773 65.7777C50.8925 64.975 50.8484 64.1464 50.9467 63.3287C50.5548 64.4797 50.8732 70.39 50.5059 73.6145C50.6528 74.1941 50.8079 75.1819 50.9875 74.7166L50.9222 73.6962C51.2732 72.7574 51.412 75.6145 51.5753 74.3247C51.9748 75.9025 52.1236 77.5334 52.0161 79.1575L51.5181 79.5167C51.7392 78.9419 51.7902 78.3156 51.665 77.7125C51.8855 78.5289 50.9875 80.6677 51.665 81.5493L52.0079 80.2024C52.4396 81.7598 52.6511 83.37 52.6365 84.9861C53.1263 84.1698 52.5794 84.5861 53.159 83.3535C52.4406 84.4065 53.1589 78.9779 52.4324 80.6677C53.1018 79.4268 52.7181 78.5126 53.2487 76.888C53.0855 76.937 52.9304 77.4595 53.012 76.0309C52.9535 75.9294 52.9043 75.8228 52.8651 75.7125V75.6146V75.6962C52.8651 75.6309 52.8651 75.6309 52.8651 75.6962C52.8246 75.9515 52.7389 76.1975 52.612 76.4227C52.2283 75.7125 52.2446 73.4268 52.0487 72.6594C52.1304 71.8431 52.2365 73.0186 52.4161 72.5533L52.1222 71.3941C52.4895 71.2798 52.7263 69.1329 52.9385 71.141V69.3369C53.1584 68.2076 53.2025 67.0511 53.0691 65.9083C53.1508 65.092 52.661 63.7613 52.9467 64.5042L52.7263 61.6715H52.8161C52.8569 58.8797 52.2038 55.9572 52.8732 52.6918C52.7242 51.5361 52.6887 50.3687 52.7671 49.2061L53.0855 48.904C52.9712 47.6958 53.4038 45.2795 53.0855 44.757C53.9426 43.459 53.2732 38.9039 53.4283 36.7732L53.012 36.6998C53.0091 35.137 52.9219 33.5755 52.7508 32.0222L52.3834 32.1283C52.0814 30.5691 52.6446 28.1119 52.612 25.5976C52.7273 26.0032 52.7273 26.4328 52.612 26.8384C53.4283 23.8833 52.0079 20.6016 52.612 17.9158C52.4986 17.3775 52.4986 16.8215 52.612 16.2832C52.6068 16.3375 52.6068 16.3922 52.612 16.4465V16.177C52.6773 15.8832 52.7508 15.573 52.8079 15.2464C52.7188 15.5123 52.6532 15.7854 52.612 16.0628C52.5991 15.3722 52.55 14.6828 52.4651 13.9974L52.8651 13.6709V13.4913C53.012 12.7403 52.6773 12.8872 52.3834 13.2954C52.3329 12.9493 52.2537 12.608 52.1467 12.275C52.7834 11.6709 51.9344 10.2668 52.612 9.43412C52.4154 8.72599 52.303 7.99713 52.2773 7.26266C52.2296 6.81845 52.1587 6.37703 52.065 5.9402C52.0161 5.7606 51.9589 5.59733 51.8936 5.40141C51.8569 5.26296 51.7768 5.13991 51.665 5.05037C51.763 5.05037 51.8038 4.69936 51.8038 5.2463C51.9474 4.16259 51.9474 3.06467 51.8038 1.98096C51.9671 1.67075 52.1385 1.35237 52.3018 1.00951C51.1834 1.22992 50.1956 1.45033 49.3303 1.67074C48.0487 1.3687 47.1752 1.18911 48.963 0.805428L47.6405 0.985024L46.9956 1.0993C46.6201 1.15644 46.3589 1.18094 46.114 1.2136C45.402 1.28829 44.6975 1.42208 44.0078 1.61359L44.1221 1.29524C43.3058 1.29524 41.9751 1.73605 41.4771 1.46666C39.6322 0.854407 32.3423 1.38504 27.5994 0.8136C28.5219 1.76871 25.3953 0.389084 25.2075 1.12379C24.93 0.903376 24.2688 0.772776 25.0361 0.576855C22.5871 0.797266 21.4034 0.217656 19.7381 0.846235C19.4606 0.617661 20.2524 0.511556 20.0075 0.380942C19.6793 0.494833 19.3259 0.514608 18.9871 0.438067C18.7422 0.307453 19.3381 0.250304 19.7218 0.152344C17.2728 0.193161 17.0034 0.887049 16.8238 1.53196C16.3722 1.37268 15.8934 1.30509 15.4155 1.33313C14.9375 1.36116 14.4699 1.48427 14.0401 1.69523C13.6074 1.48299 12.8809 1.26258 14.4156 1.18911C13.5503 1.18911 9.13386 0.870736 9.05223 1.39319C8.57794 1.29905 8.08978 1.29905 7.61549 1.39319L5.28893 1.49115C4.58688 1.49115 3.87666 1.49115 2.61134 1.49115L3.38687 1.58093C3.28264 1.69083 3.1554 1.77637 3.01428 1.83141C2.87316 1.88644 2.72165 1.90963 2.57054 1.89932C2.57054 2.60137 2.41543 3.33606 2.46441 4.61771L2.39909 4.54424L2.27664 5.87488C2.27664 6.16876 2.27664 6.38917 2.27664 6.56877C2.25476 6.81591 2.25476 7.0645 2.27664 7.31164C2.34228 8.13195 2.2845 8.95748 2.10522 9.76065L2.4889 9.57288C3.30523 9.89942 1.99908 12.6505 2.31745 14.6587L2.53787 13.9321C2.83176 15.0342 1.395 17.0097 1.28888 18.1118C1.21541 18.3567 1.1746 17.7362 1.11746 17.4016C0.619491 20.2914 1.63175 17.7689 1.7542 19.9322C1.47664 20.324 1.05213 19.4179 0.994986 20.8628C0.774575 21.5894 1.89297 25.0751 1.36235 27.0507C1.5746 26.618 1.78684 26.1854 1.95011 27.1895C2.02358 28.7242 1.13377 31.3364 1.81949 32.7242C1.76235 32.912 1.70521 32.9854 1.64807 32.9936C1.8195 34.1691 1.94194 36.8059 2.30113 37.5161C0.94601 38.6018 2.96236 44.806 1.71337 44.7815L1.77869 48.3897L1.64807 48.2999C1.51141 49.6316 1.69039 50.9768 2.17051 52.2265C2.08072 52.7653 1.96644 52.3734 1.90113 52.3326C1.58759 54.5154 1.73215 56.7395 2.32562 58.8633L1.91745 59.1572C2.15419 59.9164 1.28889 64.0552 1.7542 67.3206C1.71338 67.3206 1.63175 67.2226 1.5746 66.9614C2.04808 70.6757 0.456215 75.8595 1.92562 77.2228L2.29296 79.6718C2.40725 76.4962 2.92972 80.1452 3.17462 78.8554C3.26441 80.1044 2.72562 82.08 2.65215 80.5453L2.72562 80.3085C1.95826 79.7452 2.45623 84.2514 1.90928 84.1698C1.90928 90.4148 1.51745 96.5046 1.48479 102.358L2.08887 101.68L2.04807 103.721C1.90929 104.26 1.58275 104.439 1.60724 102.986C1.45391 103.826 1.60132 104.693 2.02358 105.435C1.77868 108.284 1.32153 104.325 1.31337 105.199L1.35418 106.382L1.42764 106.121C1.78776 107.006 1.9494 107.959 1.90113 108.913C1.77868 110.023 1.53377 109.484 1.50928 109.917C1.46847 109.917 1.44398 110.064 1.50928 110.586L1.45213 113.158L1.92562 112.129C2.16236 113.272 1.92563 114.578 2.43992 113.362C1.62358 115.109 2.13785 122.954 1.88479 124.023C2.18411 125.715 2.28276 127.435 2.17868 129.15C2.27665 128.668 2.80727 128.334 2.74196 130.056C1.64807 129.444 2.26848 133.142 1.48479 134.505C2.00725 133.289 1.60724 139.289 2.35011 137.379C2.30929 138.081 2.20318 138.105 2.08073 138.081C2.01759 138.057 1.94793 138.057 1.88479 138.081C1.84075 138.118 1.80701 138.166 1.78683 138.219C1.73455 138.344 1.70153 138.476 1.68888 138.611C1.80316 139.999 1.83582 141.379 1.81949 142.897C2.77461 142.897 3.73788 142.897 4.75014 142.962L6.29303 143.02L7.39507 143.077C8.83182 143.158 10.3094 143.215 11.7951 143.158C11.8604 143.02 11.1666 142.799 12.0564 142.587L14.236 143.305C15.0523 143.232 14.987 142.489 16.4809 142.971C16.2687 142.848 15.9584 142.669 16.4809 142.62C24.579 143.322 33.0281 142.048 41.2486 143.362C40.1302 143.085 40.8731 143.06 41.7302 143.052C41.1751 142.979 41.7302 142.693 41.6323 142.497L45.069 143.044C45.6976 142.497 48.7671 143.044 49.1507 142.489L48.0568 142.579C49.5099 141.975 46.0323 141.224 46.2446 140.44C44.6119 141.134 41.9588 139.419 39.2975 140.44C38.7098 140.285 39.7955 140.187 39.4853 140.007C38.5291 140.379 37.486 140.467 36.4812 140.26L36.6526 140.179C32.4077 140.26 30.5872 139.934 25.8198 139.713L26.1708 140.097C25.5906 140.077 25.0149 139.987 24.4565 139.828C23.2728 140.415 27.33 139.828 26.2606 140.505C24.8973 139.689 19.036 140.505 18.0973 139.599C16.5217 139.599 18.5626 140.048 16.987 140.048L16.5625 139.803L16.1707 140.113C15.1339 140.064 14.6115 139.762 14.538 139.558C14.8688 139.555 15.1989 139.527 15.5258 139.477C14.187 139.199 11.7462 139.575 11.2808 139.477L12.7992 139.624C11.3135 139.705 9.71349 139.713 8.08081 139.722H6.10526C5.74608 139.722 5.37872 139.722 5.0032 139.722C5.0032 139.419 4.95424 139.117 4.91342 138.799L4.83995 138.309L4.73382 137.346L4.55423 137.656C4.21953 134.481 4.7583 135.117 4.59504 131.632L4.64401 131.754C4.44577 130.909 4.36067 130.042 4.39095 129.174C4.6032 130.056 4.8073 127.542 5.04404 128.676C4.67668 125.232 4.7583 126.97 4.08074 124.701L4.3828 124.17C4.02071 123.36 3.85029 122.477 3.88483 121.591C4.14605 123.019 4.34197 120.48 4.70116 122.08C5.3624 118.431 4.03178 116.66 4.99506 114.987C4.17872 113.305 4.52974 118.146 4.35014 117.207C4.08075 118.023 3.72973 115.819 3.81136 114.676C3.89299 113.533 4.88077 112.693 4.86444 109.778C4.86444 110.072 4.92973 110.088 4.92157 110.382C5.13381 109.28 4.63585 108.227 4.97871 106.88C4.47259 106.129 4.97871 105.133 4.36646 104.913L4.5134 107.607C4.34197 106.08 3.59093 104.652 3.95012 102.137C4.13969 102.607 4.27395 103.098 4.35014 103.599C4.54607 102.856 4.22769 102.178 4.42361 101.419C5.06852 101.631 4.56238 104.684 5.05218 106.317C5.32974 105.501 4.58688 103.223 5.28893 104.048C4.39912 102.864 5.4032 101.15 4.71748 99.1496L5.10933 99.2802C4.97442 98.776 4.89503 98.2587 4.87259 97.7373L5.37871 98.7822C4.94605 97.1495 5.74607 95.6801 5.5175 94.1372C5.5175 97.4026 5.05218 94.8638 4.76646 96.2271C4.25217 92.2433 5.77872 93.9414 5.5828 89.476C5.63994 90.0801 5.35422 91.7454 5.17463 90.7985C5.23287 89.9692 5.37791 89.1484 5.60731 88.3494C5.52568 85.3861 5.20728 88.7984 4.97054 87.5331C5.44402 86.529 4.77464 86.08 4.6277 84.7821H5.01955C5.27261 81.4187 4.20321 83.8922 4.50525 80.8554L5.05218 82.1371L4.91342 80.5616L5.35422 80.8881C5.08789 79.5904 5.04923 78.2562 5.23995 76.9452C4.96239 77.337 4.52156 76.7248 4.5134 75.2309C4.74197 74.2105 4.88076 75.8023 4.83178 73.688C5.02358 73.9654 5.14148 74.2872 5.17433 74.6229C5.20718 74.9586 5.15392 75.297 5.01955 75.6064C5.15016 75.7043 5.26444 76.0799 5.39505 76.1778C5.54666 75.0082 5.56583 73.8252 5.4522 72.6512C5.44827 72.9256 5.41819 73.1989 5.36239 73.4676L4.81546 70.3982C4.9624 69.9165 5.08485 70.3002 5.19914 70.6839C5.19914 70.0553 4.97056 69.6308 4.93791 68.7165C5.25628 68.9533 5.59098 68.8961 5.75425 70.1859L5.40323 67.2634C5.542 67.0757 5.78689 65.7695 5.90118 66.1451C6.08894 64.5124 5.28075 62.1777 5.53382 60.0225C5.42524 59.7638 5.36706 59.4867 5.36239 59.2062C5.43586 57.1898 5.82771 55.402 5.36239 53.0102L5.94199 51.6551C5.81137 49.7775 5.21547 53.4918 4.99506 50.3734C4.81546 48.1611 5.48485 49.5571 5.64812 48.7407C5.09261 47.1224 4.95226 45.3906 5.23995 43.7039C5.29349 44.361 5.30984 45.0206 5.28893 45.6795ZM5.03586 22.569C5.1175 23.018 5.37056 23.9159 5.13382 24.2425C4.71749 23.7282 4.93791 23.3363 5.06852 22.569H5.03586ZM18.3993 3.44221C17.9252 3.55346 17.429 3.52511 16.9707 3.36057C17.4592 3.32229 17.9507 3.34976 18.432 3.44221H18.3993ZM52.6855 68.0389C52.689 68.0228 52.689 68.0061 52.6855 67.99C52.8814 66.994 52.8161 67.3451 52.7426 68.0389H52.6855ZM52.514 70.1124C52.5712 70.3247 52.6283 70.3084 52.6855 70.2186C52.575 69.851 52.5471 69.4635 52.6038 69.0839C52.5548 69.2471 52.4896 69.492 52.5712 70.1124H52.514ZM1.69705 110.235L1.80318 109.827C1.91746 110.742 1.81134 110.48 1.69705 110.235Z" fill="white"/>
<path d="M5.52588 60.0469V60.1124C5.53112 60.1286 5.53965 60.1434 5.55093 60.1561C5.56221 60.1688 5.57599 60.179 5.59141 60.1861L5.52588 60.0469Z" fill="white"/>
<path d="M49.2324 37.9893C49.2608 37.7088 49.3296 37.4339 49.4365 37.173C49.3712 37.1485 49.2569 37.3362 49.2324 37.9893Z" fill="white"/>
<path d="M53.2408 81.1008L53.1428 79.7783C53.1582 80.1799 53.1142 80.5815 53.0122 80.9701C53.102 80.9457 53.2408 80.6763 53.2408 81.1008Z" fill="white"/>
<path d="M50.8079 92.635C50.8568 92.8309 50.8079 93.0432 50.8568 93.2391L51.0446 93.182C51.0038 92.3575 50.8813 91.7779 50.8079 92.635Z" fill="white"/>
<path d="M51.9346 82.3086C51.608 82.4147 51.7141 83.2474 51.7794 84.178C51.7754 84.1236 51.7754 84.0691 51.7794 84.0148C52.2448 84.3086 52.0897 83.3209 51.9346 82.3086Z" fill="white"/>
<path d="M51.8203 84.4141C51.8366 84.7023 51.8366 84.9912 51.8203 85.2794C51.9836 85.3855 51.8203 84.9284 51.8203 84.4141Z" fill="white"/>
<path d="M52.7916 72.7404C52.71 73.1894 53.2161 73.0179 53.0855 73.271C53.5018 73.7608 52.5712 70.3322 52.7916 72.7404Z" fill="white"/>
<path d="M50.8486 83.0843L51.2568 82.7496L50.9303 82.2354L50.8486 83.0843Z" fill="white"/>
<path d="M51.1426 75.7773L51.0283 77.2631C51.1018 77.2631 51.1426 77.4345 51.1671 77.6631C51.2469 77.0364 51.2386 76.4017 51.1426 75.7773Z" fill="white"/>
<path d="M51.1673 77.623C51.1438 78.0246 51.1685 78.4274 51.2408 78.823C51.2326 78.5618 51.2163 78.0067 51.1673 77.623Z" fill="white"/>
<path d="M50.7263 81.0512L50.808 80.6103L50.8406 79.5654L50.7263 81.0512Z" fill="white"/>
<path d="M51.2241 59.7617L51.1016 58.129C50.9628 57.9657 50.8812 58.4065 50.9384 59.0106C51.0037 59.4025 51.0853 60.0066 51.2241 59.7617Z" fill="white"/>
<path d="M50.1058 64.6677C50.1465 64.4058 50.2533 64.1586 50.416 63.9494L49.9099 63.9004L50.1058 64.6677Z" fill="white"/>
<path d="M49.9834 59.9326C49.8447 59.7694 49.5834 57.5816 49.6161 59.6306C49.7549 59.802 49.8692 61.4265 49.9834 59.9326Z" fill="white"/>
<path d="M50.6282 35.4834L50.6363 35.8916L51.469 35.8344L50.6282 35.4834Z" fill="white"/>
<path d="M48.6365 13.9323C48.4405 15.8588 49.1508 14.3894 48.8977 16.1282C49.0936 16.5772 49.1018 14.7078 49.2732 15.1731C49.0691 14.0139 49.1834 13.4016 48.6365 13.9323Z" fill="white"/>
<path d="M49.2732 15.1729C49.3068 15.3709 49.3504 15.567 49.4038 15.7606C49.375 15.5617 49.3313 15.3652 49.2732 15.1729Z" fill="white"/>
<path d="M47.4365 143.566L48.6774 143.738L47.8773 143.46L47.4365 143.566Z" fill="white"/>
<path d="M49.8037 142.946L50.0976 143.477L50.8405 143.003C50.4946 143.055 50.1418 143.036 49.8037 142.946Z" fill="white"/>
<path d="M6.1053 19.1399L5.98285 19.042C5.83523 19.3751 5.77619 19.7406 5.81143 20.1032L6.1053 19.1399Z" fill="white"/>
<path d="M5.73802 35.9081L5.75434 35.6143L5.27271 36.1612L5.73802 35.9081Z" fill="white"/>
<path d="M6.35035 49.9809C6.35035 49.4095 6.26056 48.7319 6.27688 48.1523C6.36668 49.4095 5.74626 50.136 6.35035 49.9809Z" fill="white"/>
</svg>
