<svg width="107" height="40" viewBox="0 0 107 40" fill="none" xmlns="http://www.w3.org/2000/svg">
<path d="M52.14 35.5412C52.26 35.8212 52.22 36.2012 52.02 36.6812C51.82 37.1612 51.56 37.5812 51.24 37.9412C50.92 38.3812 50.32 38.7412 49.44 39.0212C48.56 39.3012 47.72 39.3812 46.92 39.2612C46.56 39.2212 46.08 39.1612 45.48 39.0812C44.88 39.0012 44.24 38.9212 43.56 38.8412C42.92 38.8012 42.3 38.7612 41.7 38.7212C41.1 38.6812 40.6 38.6612 40.2 38.6612C39.72 38.6612 38.86 38.6612 37.62 38.6612C36.38 38.6612 34.92 38.6612 33.24 38.6612C31.6 38.7012 29.84 38.7412 27.96 38.7812C26.08 38.8612 24.28 38.9212 22.56 38.9612C20.88 39.0012 19.36 39.0412 18 39.0812C16.64 39.1212 15.66 39.1412 15.06 39.1412C13.18 39.2212 11.28 39.1212 9.36 38.8412C7.48 38.6012 5.78 37.9212 4.26 36.8012C3.62 36.3212 3.04 35.8612 2.52 35.4212C2 34.9412 1.58 34.5412 1.26 34.2212C0.94 33.9012 0.76 33.5412 0.72 33.1412C0.68 32.7412 0.76 32.3412 0.96 31.9412C1.08 31.7412 1.26 31.4812 1.5 31.1612C1.74 30.8012 2 30.4612 2.28 30.1412C2.6 29.7812 2.9 29.4612 3.18 29.1812C3.5 28.8612 3.78 28.6212 4.02 28.4612C4.42 28.2212 4.82 28.1012 5.22 28.1012C5.66 28.1012 6.28 28.3012 7.08 28.7012C7.84 29.0612 8.52 29.4012 9.12 29.7212C9.72 30.0012 10.34 30.2212 10.98 30.3812C11.62 30.5012 12.16 30.5812 12.6 30.6212C13.08 30.6612 13.6 30.7212 14.16 30.8012C15.04 30.8412 16.22 30.8612 17.7 30.8612C19.22 30.8612 20.88 30.8412 22.68 30.8012V30.4412C22.68 28.9212 22.4 27.5812 21.84 26.4212C21.6 25.8212 21.74 25.2612 22.26 24.7412C20.7 24.5012 19.2 24.0612 17.76 23.4212C16.36 22.7412 15.12 21.9012 14.04 20.9012C13 19.8612 12.16 18.6812 11.52 17.3612C10.92 16.0412 10.62 14.6012 10.62 13.0412C10.62 11.6012 11.04 10.2212 11.88 8.90117C12.72 7.54117 13.8 6.32117 15.12 5.24117C16.44 4.16117 17.88 3.26117 19.44 2.54117C21.04 1.78117 22.56 1.26117 24 0.981169C24.4 0.661171 24.82 0.461171 25.26 0.38117C25.74 0.261171 26.28 0.201172 26.88 0.201172C28.8 0.201172 30.72 0.561171 32.64 1.28117C34.56 2.00117 36.26 3.00117 37.74 4.28117C39.26 5.52117 40.44 7.00117 41.28 8.72117C42.16 10.4012 42.54 12.2212 42.42 14.1812C42.34 15.5812 41.98 16.9012 41.34 18.1412C40.74 19.3412 39.94 20.4212 38.94 21.3812C37.94 22.3012 36.78 23.0612 35.46 23.6612C34.18 24.2212 32.82 24.5612 31.38 24.6812C31.46 25.2412 31.52 25.9212 31.56 26.7212C31.64 27.4812 31.68 28.1012 31.68 28.5812C31.68 28.9012 31.66 29.2412 31.62 29.6012C31.62 29.9212 31.6 30.2612 31.56 30.6212C33.36 30.5412 34.98 30.4812 36.42 30.4412C37.86 30.3612 38.96 30.2812 39.72 30.2012C41 30.0812 42.12 29.9812 43.08 29.9012C44.04 29.7812 44.84 29.7612 45.48 29.8412C46.12 29.9212 46.76 30.1412 47.4 30.5012C48.08 30.8612 48.76 31.4012 49.44 32.1212C50.04 32.7612 50.6 33.4012 51.12 34.0412C51.64 34.6812 51.98 35.1812 52.14 35.5412ZM19.38 12.6812C19.38 13.3212 19.58 13.9412 19.98 14.5412C20.38 15.1012 20.88 15.6212 21.48 16.1012C22.12 16.5412 22.84 16.9012 23.64 17.1812C24.44 17.4612 25.24 17.6212 26.04 17.6612C26.56 17.7012 27.02 17.7612 27.42 17.8412C27.82 17.8812 28.26 17.9612 28.74 18.0812C29.38 18.0012 29.98 17.8012 30.54 17.4812C31.14 17.1212 31.66 16.7012 32.1 16.2212C32.58 15.7412 32.94 15.2212 33.18 14.6612C33.46 14.1012 33.6 13.5812 33.6 13.1012C33.52 11.5012 32.9 10.2612 31.74 9.38117C30.62 8.46117 29.18 7.84117 27.42 7.52117C26.34 7.60117 25.3 7.76117 24.3 8.00117C23.34 8.20117 22.48 8.52117 21.72 8.96117C21 9.36117 20.42 9.88117 19.98 10.5212C19.58 11.1212 19.38 11.8412 19.38 12.6812ZM104.69 33.2612C105.25 33.7812 105.65 34.3212 105.89 34.8812C106.17 35.4412 106.29 35.9412 106.25 36.3812C106.21 36.8212 106.01 37.2212 105.65 37.5812C105.29 37.9412 104.91 38.2212 104.51 38.4212C103.63 38.8212 102.67 39.1012 101.63 39.2612C100.59 39.4612 99.4902 39.4612 98.3302 39.2612C98.0102 39.2212 97.5502 39.1612 96.9502 39.0812C96.3502 39.0012 95.6902 38.9212 94.9702 38.8412C94.2902 38.8012 93.5902 38.7412 92.8702 38.6612C92.1502 38.6212 91.5102 38.6012 90.9502 38.6012C90.1502 38.5612 88.9902 38.5412 87.4702 38.5412C85.9902 38.5812 84.3102 38.6012 82.4302 38.6012C80.5502 38.6412 78.5702 38.6812 76.4902 38.7212C74.4502 38.8012 72.5102 38.8612 70.6702 38.9012C68.8302 38.9412 67.1902 39.0012 65.7502 39.0812C64.3102 39.1612 63.2502 39.2212 62.5702 39.2612C61.1302 39.3812 59.9302 39.2812 58.9702 38.9612C58.0502 38.6412 57.1302 38.0212 56.2102 37.1012C55.4902 36.3812 54.9502 35.6812 54.5902 35.0012C54.2302 34.2812 53.9502 33.6812 53.7502 33.2012C53.5502 32.7212 53.6902 32.2412 54.1702 31.7612C54.2902 31.6412 54.4902 31.4612 54.7702 31.2212C55.0502 30.9812 55.3302 30.7412 55.6102 30.5012C55.9302 30.2612 56.2302 30.0412 56.5102 29.8412C56.7902 29.6412 57.0102 29.5012 57.1702 29.4212C57.9302 29.0212 58.7702 29.1412 59.6902 29.7812C60.1702 30.1012 60.5902 30.3612 60.9502 30.5612C61.3102 30.7612 61.6502 30.9012 61.9702 30.9812C62.3302 31.0612 62.6902 31.1212 63.0502 31.1612C63.4102 31.1612 63.8302 31.1612 64.3102 31.1612C64.5502 31.1612 65.0102 31.1612 65.6902 31.1612C66.3702 31.1212 67.1702 31.1012 68.0902 31.1012C69.0502 31.0612 70.1102 31.0412 71.2702 31.0412C72.4302 31.0012 73.6302 30.9612 74.8702 30.9212L74.9902 28.6412C75.0302 27.2812 75.0302 26.3412 74.9902 25.8212C74.9502 25.2612 74.8702 24.7612 74.7502 24.3212C74.7502 24.2812 74.7302 24.2612 74.6902 24.2612C74.6902 24.2212 74.6902 24.1612 74.6902 24.0812C74.3702 24.1212 74.0302 24.1612 73.6702 24.2012C73.3502 24.2012 73.0302 24.2012 72.7102 24.2012C72.2302 24.9212 71.5702 25.3412 70.7302 25.4612C69.6902 25.6212 68.7102 25.3812 67.7902 24.7412C66.8702 24.0612 66.1502 22.8412 65.6302 21.0812C65.5102 20.6012 65.3702 19.8612 65.2102 18.8612C65.0902 17.8212 64.9502 16.7412 64.7902 15.6212C64.6702 14.4612 64.5502 13.3812 64.4302 12.3812C64.3102 11.3412 64.1902 10.6212 64.0702 10.2212C63.8702 9.50117 63.6702 8.94117 63.4702 8.54117C63.2702 8.14117 63.0502 7.80117 62.8102 7.52117C62.3302 7.00117 62.0702 6.48117 62.0302 5.96117C61.9902 5.40117 62.2702 4.82117 62.8702 4.22117C63.0302 4.06117 63.2702 3.86117 63.5902 3.62117C63.9102 3.38117 64.2502 3.14117 64.6102 2.90117C65.0102 2.66117 65.3902 2.46117 65.7502 2.30117C66.1502 2.10117 66.5102 1.96117 66.8302 1.88117C67.7902 1.68117 68.6102 1.64117 69.2902 1.76117C70.0102 1.84117 70.5502 2.16117 70.9102 2.72117C72.4702 2.60117 74.0702 2.52117 75.7102 2.48117C77.3902 2.40117 78.9902 2.34117 80.5102 2.30117C82.0302 2.26117 83.4102 2.26117 84.6502 2.30117C85.8902 2.30117 86.8702 2.32117 87.5902 2.36117C87.8302 2.16117 88.1102 2.00117 88.4302 1.88117C88.7502 1.76117 89.1902 1.66117 89.7502 1.58117C89.8702 1.58117 90.1302 1.62117 90.5302 1.70117C90.9702 1.78117 91.4302 1.88117 91.9102 2.00117C92.3902 2.12117 92.8302 2.26117 93.2302 2.42117C93.6702 2.54117 93.9702 2.64117 94.1302 2.72117C94.5302 2.92117 94.8102 3.18117 94.9702 3.50117C95.1702 3.78117 95.3102 4.22117 95.3902 4.82117C95.4302 5.30117 95.4302 5.72117 95.3902 6.08117C95.3902 6.44117 95.3102 6.78117 95.1502 7.10117C94.9902 8.22117 94.8102 9.44117 94.6102 10.7612C94.4102 12.0812 94.2102 13.4212 94.0102 14.7812C93.8502 16.1412 93.6902 17.4812 93.5302 18.8012C93.3702 20.0812 93.2302 21.2412 93.1102 22.2812C93.0702 22.7212 92.9102 23.1012 92.6302 23.4212C92.3902 23.7412 92.0902 24.0212 91.7302 24.2612C91.4102 24.4612 91.0502 24.6212 90.6502 24.7412C90.2502 24.8612 89.8902 24.9412 89.5702 24.9812C89.1702 24.9412 88.7302 24.8612 88.2502 24.7412C87.7702 24.6212 87.3502 24.4212 86.9902 24.1412C86.5102 24.1012 86.0102 24.0812 85.4902 24.0812C85.0102 24.0412 84.5302 24.0212 84.0502 24.0212C84.1302 24.3812 84.1702 24.7612 84.1702 25.1612C84.2102 25.5612 84.2302 25.9812 84.2302 26.4212C84.1902 27.3412 84.1502 28.1412 84.1102 28.8212C84.1102 29.5012 84.0702 30.1412 83.9902 30.7412C84.8302 30.7012 85.5502 30.6812 86.1502 30.6812C86.7502 30.6412 87.1902 30.6212 87.4702 30.6212C88.6702 30.5412 89.8302 30.4812 90.9502 30.4412C92.0702 30.4012 92.9102 30.3412 93.4702 30.2612C94.4302 30.1012 95.3302 30.0012 96.1702 29.9612C97.0502 29.8812 97.7702 29.8412 98.3302 29.8412C98.7702 29.8412 99.2902 29.9812 99.8902 30.2612C100.53 30.5412 101.15 30.8612 101.75 31.2212C102.39 31.5812 102.97 31.9612 103.49 32.3612C104.05 32.7212 104.45 33.0212 104.69 33.2612ZM86.6302 9.80117C85.8302 9.72117 84.8502 9.66117 83.6902 9.62117C82.5702 9.58117 81.3502 9.58117 80.0302 9.62117C78.7102 9.62117 77.3702 9.66117 76.0102 9.74117C74.6502 9.78117 73.3902 9.84117 72.2302 9.92117L73.0702 17.0012C74.0302 16.9612 75.0702 16.9212 76.1902 16.8812C77.3502 16.8012 78.5102 16.7412 79.6702 16.7012C80.8302 16.6612 81.9702 16.6412 83.0902 16.6412C84.2102 16.6012 85.2102 16.5812 86.0902 16.5812C86.1702 15.4612 86.2502 14.3012 86.3302 13.1012C86.4102 11.9012 86.5102 10.8012 86.6302 9.80117Z" fill="white"/>
</svg>
