<svg width="24" height="24" viewBox="0 0 24 24" fill="none" xmlns="http://www.w3.org/2000/svg">
<circle cx="12" cy="12" r="12" fill="#FFC737"/>
<path d="M12.08 6.384C12.6027 6.384 13.072 6.45333 13.488 6.592C13.9147 6.73067 14.2773 6.928 14.576 7.184C14.8747 7.42933 15.0987 7.728 15.248 8.08C15.408 8.432 15.488 8.82667 15.488 9.264V9.44C15.488 9.97333 15.3493 10.4533 15.072 10.88C14.7947 11.296 14.3787 11.7493 13.824 12.24C13.4933 12.5387 13.232 12.7947 13.04 13.008C12.848 13.2213 12.6987 13.4187 12.592 13.6C12.496 13.7707 12.432 13.9413 12.4 14.112C12.3787 14.272 12.368 14.4533 12.368 14.656C12.368 14.8053 12.3093 14.9173 12.192 14.992C12.0853 15.0667 11.9627 15.104 11.824 15.104C11.6747 15.104 11.5413 15.0667 11.424 14.992C11.3067 14.9173 11.248 14.8 11.248 14.64C11.248 14.3733 11.264 14.128 11.296 13.904C11.328 13.68 11.3973 13.4613 11.504 13.248C11.6213 13.0347 11.776 12.8107 11.968 12.576C12.1707 12.3413 12.4427 12.0747 12.784 11.776C13.072 11.52 13.312 11.2907 13.504 11.088C13.7067 10.8747 13.8667 10.6827 13.984 10.512C14.112 10.3307 14.1973 10.1547 14.24 9.984C14.2933 9.81333 14.32 9.632 14.32 9.44V9.312C14.32 8.74667 14.1227 8.29333 13.728 7.952C13.344 7.61067 12.8 7.44 12.096 7.44C11.552 7.44 11.0933 7.53067 10.72 7.712C10.3467 7.89333 10.0053 8.12267 9.696 8.4C9.57867 8.496 9.45067 8.53867 9.312 8.528C9.184 8.50667 9.072 8.43733 8.976 8.32C8.86933 8.20267 8.816 8.08 8.816 7.952C8.82667 7.81333 8.89067 7.69067 9.008 7.584C9.34933 7.264 9.78133 6.98667 10.304 6.752C10.8373 6.50667 11.4293 6.384 12.08 6.384ZM11.808 16.64C12.064 16.64 12.2773 16.7307 12.448 16.912C12.6187 17.0827 12.704 17.2907 12.704 17.536C12.704 17.7813 12.6187 17.9893 12.448 18.16C12.2773 18.3307 12.064 18.416 11.808 18.416C11.5627 18.416 11.3493 18.3307 11.168 18.16C10.9973 17.9893 10.912 17.7813 10.912 17.536C10.912 17.2907 10.9973 17.0827 11.168 16.912C11.3493 16.7307 11.5627 16.64 11.808 16.64Z" fill="white"/>
</svg>
