<svg width="24" height="24" viewBox="0 0 24 24" fill="none" xmlns="http://www.w3.org/2000/svg">
<path fill-rule="evenodd" clip-rule="evenodd" d="M4 3C3.44772 3 3 3.44772 3 4C3 4.55228 3.44772 5 4 5H5V9C5 12.5265 7.60771 15.4439 11 15.9291V19H9C8.44772 19 8 19.4477 8 20C8 20.5523 8.44772 21 9 21H15C15.5523 21 16 20.5523 16 20C16 19.4477 15.5523 19 15 19H13V15.9291C16.3923 15.4439 19 12.5265 19 9V5H20C20.5523 5 21 4.55228 21 4C21 3.44772 20.5523 3 20 3H17.8182H6.18182H4ZM12 14C14.7614 14 17 11.7614 17 9V5H7V9C7 11.7614 9.23858 14 12 14Z" fill="#424247"/>
</svg>
