<svg width="24" height="24" viewBox="0 0 24 24" fill="none" xmlns="http://www.w3.org/2000/svg">
<circle cx="10" cy="10" r="6" stroke="#424247" stroke-width="2"/>
<rect x="13" y="14.4142" width="2" height="9" rx="1" transform="rotate(-45 13 14.4142)" fill="#424247"/>
<path fill-rule="evenodd" clip-rule="evenodd" d="M10 7C9.44772 7 9 7.44772 9 8V9H8C7.44772 9 7 9.44772 7 10C7 10.5523 7.44772 11 8 11H9V12C9 12.5523 9.44772 13 10 13C10.5523 13 11 12.5523 11 12V11H12C12.5523 11 13 10.5523 13 10C13 9.44772 12.5523 9 12 9H11V8C11 7.44772 10.5523 7 10 7Z" fill="#424247"/>
</svg>
