<svg width="40" height="40" viewBox="0 0 40 40" fill="none" xmlns="http://www.w3.org/2000/svg">
<circle cx="20" cy="20" r="20" fill="#FFC737"/>
<path d="M14.54 13C14.6 13.89 14.75 14.76 14.99 15.59L13.79 16.79C13.38 15.59 13.12 14.32 13.03 13H14.54ZM24.4 25.02C25.25 25.26 26.12 25.41 27 25.47V26.96C25.68 26.87 24.41 26.61 23.2 26.21L24.4 25.02ZM15.5 11H12C11.45 11 11 11.45 11 12C11 21.39 18.61 29 28 29C28.55 29 29 28.55 29 28V24.51C29 23.96 28.55 23.51 28 23.51C26.76 23.51 25.55 23.31 24.43 22.94C24.33 22.9 24.22 22.89 24.12 22.89C23.86 22.89 23.61 22.99 23.41 23.18L21.21 25.38C18.38 23.93 16.06 21.62 14.62 18.79L16.82 16.59C17.1 16.31 17.18 15.92 17.07 15.57C16.7 14.45 16.5 13.25 16.5 12C16.5 11.45 16.05 11 15.5 11Z" fill="white"/>
</svg>
