<svg width="24" height="24" viewBox="0 0 24 24" fill="none" xmlns="http://www.w3.org/2000/svg">
<circle cx="12" cy="12" r="12" fill="#FFC737"/>
<path d="M8.72556 7.80156C8.76156 8.33556 8.85156 8.85756 8.99556 9.35556L8.27556 10.0756C8.02956 9.35556 7.87356 8.59356 7.81956 7.80156H8.72556ZM14.6416 15.0136C15.1516 15.1576 15.6736 15.2476 16.2016 15.2836V16.1776C15.4096 16.1236 14.6476 15.9676 13.9216 15.7276L14.6416 15.0136ZM9.30156 6.60156H7.20156C6.87156 6.60156 6.60156 6.87156 6.60156 7.20156C6.60156 12.8356 11.1676 17.4016 16.8016 17.4016C17.1316 17.4016 17.4016 17.1316 17.4016 16.8016V14.7076C17.4016 14.3776 17.1316 14.1076 16.8016 14.1076C16.0576 14.1076 15.3316 13.9876 14.6596 13.7656C14.5996 13.7416 14.5336 13.7356 14.4736 13.7356C14.3176 13.7356 14.1676 13.7956 14.0476 13.9096L12.7276 15.2296C11.0296 14.3596 9.63756 12.9736 8.77356 11.2756L10.0936 9.95556C10.2616 9.78756 10.3096 9.55356 10.2436 9.34356C10.0216 8.67156 9.90156 7.95156 9.90156 7.20156C9.90156 6.87156 9.63156 6.60156 9.30156 6.60156Z" fill="white"/>
</svg>
